<svg xmlns="http://www.w3.org/2000/svg"  viewBox="0 0 100 100" width="90px" height="90px"><g><path fill="#c7ede6" d="M88.543,56.005c0.3-0.616,0.566-1.264,0.796-1.943c2.633-7.77-1.349-17.078-9.733-19.325C78.7,23.354,70.7,15.545,61.665,14.212C51.325,12.687,41.851,19.257,38.7,29.698c-3.799-1.346-7.501-1.182-10.99,0.857c-1.583,0.732-3.031,1.812-4.33,3.233c-1.907,2.086-3.147,4.719-3.652,7.495c-0.748,0.118-1.483,0.236-2.176,0.484c-4.04,1.449-6.589,4.431-7.288,8.923c-0.435,2.797,0.443,5.587,0.933,6.714c1.935,4.455,6.422,6.98,10.981,6.312c0.227-0.033,0.557,0.069,0.752,0.233c0.241,7.12,3.698,13.417,8.884,17.014c8.321,5.772,19.027,3.994,25.781-3.921c2.894,2.96,6.338,4.398,10.384,3.876c4.023-0.519,7.147-2.739,9.426-6.349c1.053,0.283,2.051,0.691,3.083,0.804c4.042,0.442,7.324-1.165,9.732-4.8c0.922-1.391,1.793-3.194,1.793-6.354C92.014,60.962,90.72,57.995,88.543,56.005z"/><path fill="#fdfcef" d="M76.108,50.93c0,0,11.691,0,11.762,0c2.7,0,4.888-2.189,4.888-4.889c0-2.355-1.666-4.321-3.884-4.784c0.026-0.206,0.043-0.415,0.043-0.628c0-2.796-2.267-5.063-5.063-5.063c-1.651,0-3.113,0.794-4.037,2.017c-0.236-3.113-3.017-5.514-6.27-5.116c-2.379,0.291-4.346,2.13-4.784,4.486c-0.14,0.756-0.126,1.489,0.014,2.177c-0.638-0.687-1.546-1.119-2.557-1.119c-1.85,0-3.361,1.441-3.48,3.261c-0.84-0.186-1.754-0.174-2.717,0.188c-1.84,0.691-3.15,2.423-3.227,4.387c-0.109,2.789,2.12,5.085,4.885,5.085c0.21,0,0.948,0,1.118,0h10.151"/><path fill="#472b29" d="M87.87,51.43H76.108c-0.276,0-0.5-0.224-0.5-0.5s0.224-0.5,0.5-0.5H87.87c2.419,0,4.388-1.969,4.388-4.389c0-2.067-1.466-3.873-3.486-4.295c-0.255-0.053-0.426-0.293-0.394-0.552c0.023-0.186,0.039-0.373,0.039-0.565c0-2.516-2.047-4.563-4.563-4.563c-1.438,0-2.765,0.663-3.638,1.818c-0.125,0.167-0.339,0.239-0.54,0.178c-0.199-0.059-0.342-0.234-0.357-0.441c-0.104-1.377-0.779-2.671-1.85-3.549c-1.083-0.887-2.453-1.282-3.861-1.109c-2.166,0.265-3.955,1.943-4.353,4.081c-0.124,0.667-0.12,1.335,0.013,1.986c0.044,0.22-0.062,0.442-0.262,0.544c-0.2,0.102-0.442,0.06-0.595-0.104c-0.574-0.619-1.352-0.959-2.19-0.959c-1.569,0-2.878,1.227-2.981,2.793c-0.01,0.146-0.082,0.28-0.199,0.367c-0.117,0.087-0.268,0.118-0.408,0.088c-0.841-0.187-1.637-0.131-2.433,0.167c-1.668,0.626-2.835,2.209-2.903,3.938c-0.047,1.207,0.387,2.35,1.222,3.218c0.835,0.869,1.959,1.347,3.164,1.347h11.269c0.276,0,0.5,0.224,0.5,0.5s-0.224,0.5-0.5,0.5H61.683c-1.479,0-2.858-0.587-3.884-1.654c-1.025-1.066-1.558-2.469-1.5-3.95c0.083-2.126,1.51-4.069,3.551-4.836c0.8-0.301,1.627-0.402,2.468-0.298c0.377-1.823,1.998-3.182,3.905-3.182c0.685,0,1.354,0.179,1.944,0.51c0-0.385,0.035-0.772,0.106-1.159c0.477-2.562,2.621-4.573,5.215-4.891c1.681-0.207,3.321,0.266,4.616,1.328c1.004,0.823,1.716,1.951,2.038,3.193c1.012-0.916,2.319-1.425,3.713-1.425c3.067,0,5.563,2.496,5.563,5.563c0,0.083-0.002,0.166-0.007,0.249c2.254,0.673,3.848,2.777,3.848,5.164C93.258,49.012,90.841,51.43,87.87,51.43z"/><path fill="#fdfcef" d="M73.275,40.161c-1.808-0.119-3.365,1.13-3.476,2.789c-0.014,0.206-0.005,0.409,0.025,0.606c-0.349-0.394-0.865-0.661-1.458-0.7c-1.085-0.071-2.022,0.645-2.158,1.62c-0.197-0.054-0.403-0.09-0.616-0.104c-1.582-0.104-2.944,0.989-3.042,2.441"/><path fill="#472b29" d="M62.551,47.062c-0.006,0-0.012,0-0.017,0c-0.138-0.009-0.242-0.128-0.233-0.266c0.107-1.586,1.59-2.786,3.308-2.674c0.136,0.009,0.272,0.027,0.409,0.053c0.273-0.968,1.262-1.642,2.366-1.568c0.425,0.028,0.823,0.161,1.163,0.382c0.001-0.019,0.002-0.037,0.003-0.056c0.121-1.793,1.795-3.141,3.742-3.022c0.138,0.009,0.242,0.128,0.233,0.266c-0.009,0.137-0.121,0.244-0.266,0.233c-1.664-0.108-3.108,1.038-3.21,2.557c-0.013,0.184-0.005,0.37,0.023,0.551c0.017,0.11-0.041,0.217-0.141,0.265c-0.098,0.046-0.219,0.023-0.293-0.061c-0.323-0.364-0.78-0.583-1.288-0.617c-0.93-0.062-1.775,0.555-1.894,1.405c-0.01,0.071-0.05,0.134-0.11,0.174s-0.134,0.052-0.204,0.033c-0.188-0.051-0.379-0.084-0.567-0.096c-1.434-0.094-2.687,0.896-2.776,2.208C62.791,46.961,62.681,47.062,62.551,47.062z"/><g><path fill="#fdfcef" d="M89.849,41.829c-1.699-0.801-3.664-0.234-4.389,1.267c-0.09,0.186-0.157,0.379-0.201,0.574"/><path fill="#472b29" d="M85.26,43.919c-0.018,0-0.037-0.002-0.056-0.006c-0.135-0.031-0.219-0.165-0.188-0.299c0.049-0.215,0.123-0.426,0.219-0.626c0.782-1.622,2.902-2.242,4.721-1.384c0.125,0.059,0.179,0.208,0.12,0.333c-0.059,0.126-0.209,0.178-0.333,0.12c-1.574-0.741-3.393-0.226-4.058,1.149c-0.08,0.166-0.141,0.341-0.182,0.52C85.477,43.841,85.374,43.919,85.26,43.919z"/></g><g><path fill="#f9c041" d="M66.258,75.583H36.544c-3.766,0-6.847-3.081-6.847-6.847V39.023c0-3.766,3.081-6.847,6.847-6.847h29.713c3.766,0,6.847,3.081,6.847,6.847v29.713C73.105,72.502,70.024,75.583,66.258,75.583z"/><path fill="#472b29" d="M66.258,76.284H36.544c-4.162,0-7.547-3.386-7.547-7.547V39.023c0-4.162,3.386-7.547,7.547-7.547h29.713c4.162,0,7.547,3.386,7.547,7.547v29.713C73.805,72.898,70.419,76.284,66.258,76.284z M36.544,32.876c-3.39,0-6.147,2.757-6.147,6.147v29.713c0,3.39,2.757,6.147,6.147,6.147h29.713c3.39,0,6.147-2.757,6.147-6.147V39.023c0-3.39-2.757-6.147-6.147-6.147H36.544z"/><path fill="#472b29" d="M64.35 72.833H38.452c-3.311 0-6.004-2.693-6.004-6.004V40.931c0-3.311 2.693-6.004 6.004-6.004h24.663c.193 0 .35.157.35.35s-.157.35-.35.35H38.452c-2.924 0-5.304 2.379-5.304 5.304v25.898c0 2.924 2.379 5.304 5.304 5.304H64.35c2.925 0 5.304-2.379 5.304-5.304V52.501c0-.193.157-.35.35-.35s.35.157.35.35v14.328C70.354 70.14 67.661 72.833 64.35 72.833zM70.004 50.785c-.193 0-.35-.157-.35-.35v-2.756c0-.193.157-.35.35-.35s.35.157.35.35v2.756C70.354 50.628 70.198 50.785 70.004 50.785z"/><g><path fill="#472b29" d="M70.004,46.651c-0.193,0-0.35-0.157-0.35-0.35v-1.378c0-0.193,0.157-0.35,0.35-0.35s0.35,0.157,0.35,0.35v1.378C70.354,46.494,70.198,46.651,70.004,46.651z"/></g><g><path fill="#fdfcee" d="M56.915,62.015h-2.341l-1.519-4.009h-7.745l-1.494,4.009h-2.341l6.599-16.585h2.241L56.915,62.015z M46.007,56.163h6.375l-3.188-8.642L46.007,56.163z"/><path fill="#472b29" d="M56.914,62.315h-2.341c-0.125,0-0.236-0.077-0.281-0.193l-1.445-3.816h-7.33l-1.421,3.814c-0.044,0.118-0.156,0.195-0.281,0.195h-2.341c-0.1,0-0.192-0.049-0.248-0.131c-0.056-0.083-0.067-0.187-0.031-0.279l6.6-16.585c0.045-0.114,0.156-0.189,0.279-0.189h2.241c0.123,0,0.233,0.075,0.279,0.189l6.6,16.585c0.037,0.092,0.025,0.197-0.031,0.279C57.107,62.266,57.014,62.315,56.914,62.315z M54.78,61.715h1.692l-6.361-15.986h-1.834l-6.361,15.986h1.69l1.421-3.814c0.044-0.118,0.156-0.195,0.281-0.195h7.746c0.125,0,0.236,0.077,0.281,0.193L54.78,61.715z M52.382,56.463h-6.375c-0.098,0-0.19-0.048-0.246-0.128s-0.069-0.183-0.035-0.275l3.188-8.642c0.087-0.235,0.476-0.235,0.562,0l3.188,8.642c0.034,0.092,0.021,0.195-0.035,0.275S52.48,56.463,52.382,56.463z M46.437,55.863h5.515l-2.757-7.475L46.437,55.863z"/><g><path fill="#fdfcee" d="M58.489,46.526c0-0.382,0.128-0.714,0.386-0.996c0.257-0.282,0.602-0.424,1.033-0.424c0.432,0,0.776,0.141,1.034,0.424c0.257,0.282,0.386,0.615,0.386,0.996c0,0.382-0.129,0.714-0.386,0.996c-0.258,0.282-0.602,0.424-1.034,0.424c-0.432,0-0.776-0.141-1.033-0.424C58.617,47.24,58.489,46.907,58.489,46.526z M58.788,62.015V50.061h2.241v11.954H58.788z"/><path fill="#472b29" d="M61.029,62.315h-2.241c-0.166,0-0.3-0.134-0.3-0.3V50.062c0-0.166,0.134-0.3,0.3-0.3h2.241c0.166,0,0.3,0.134,0.3,0.3v11.954C61.329,62.181,61.194,62.315,61.029,62.315z M59.088,61.715h1.641V50.361h-1.641V61.715z M59.908,48.245c-0.518,0-0.94-0.175-1.255-0.521c-0.308-0.337-0.464-0.74-0.464-1.198c0-0.458,0.156-0.861,0.464-1.198c0.314-0.346,0.737-0.521,1.255-0.521c0.517,0,0.939,0.175,1.255,0.521c0.308,0.338,0.464,0.741,0.464,1.198c0,0.458-0.156,0.861-0.464,1.198C60.848,48.069,60.425,48.245,59.908,48.245z M59.908,45.405c-0.347,0-0.612,0.106-0.811,0.326c-0.208,0.228-0.309,0.487-0.309,0.794s0.101,0.567,0.308,0.793c0.2,0.22,0.465,0.326,0.812,0.326c0.346,0,0.612-0.107,0.812-0.326c0.207-0.227,0.308-0.486,0.308-0.794c0-0.307-0.101-0.567-0.308-0.794C60.52,45.512,60.254,45.405,59.908,45.405z"/></g></g></g><g><path fill="#fdfcef" d="M41.303,77.534c1.883,0,3.517,0,3.54,0c2.11,0,3.821-1.674,3.821-3.739c0-1.802-1.302-3.305-3.035-3.66c0.02-0.158,0.034-0.317,0.034-0.48c0-2.139-1.772-3.873-3.957-3.873c-1.29,0-2.433,0.607-3.155,1.543c-0.185-2.381-2.358-4.218-4.9-3.913c-1.859,0.223-3.397,1.629-3.739,3.431c-0.11,0.578-0.098,1.139,0.011,1.665c-0.498-0.525-1.208-0.856-1.998-0.856c-1.446,0-2.627,1.102-2.72,2.494c-0.657-0.142-1.371-0.133-2.123,0.143c-1.438,0.528-2.462,1.853-2.522,3.356c-0.085,2.133,1.657,3.889,3.818,3.889c0.164,0,0.741,0,0.874,0h7.934 M34.826,77.534h0.36"/><path fill="#472b29" d="M44.843,78.034h-3.54c-0.276,0-0.5-0.224-0.5-0.5s0.224-0.5,0.5-0.5h3.54c1.831,0,3.321-1.453,3.321-3.239c0-1.524-1.108-2.857-2.636-3.17c-0.256-0.052-0.429-0.293-0.396-0.553c0.018-0.137,0.03-0.276,0.03-0.417c0-1.86-1.551-3.373-3.457-3.373c-1.092,0-2.098,0.491-2.759,1.348c-0.127,0.164-0.34,0.231-0.539,0.173c-0.198-0.059-0.339-0.234-0.355-0.44c-0.079-1.019-0.565-1.943-1.369-2.603c-0.828-0.68-1.884-0.984-2.973-0.853c-1.646,0.197-3.006,1.442-3.308,3.028c-0.094,0.495-0.09,0.99,0.01,1.471c0.045,0.219-0.06,0.441-0.258,0.544c-0.197,0.104-0.44,0.064-0.595-0.099c-0.428-0.452-1.009-0.7-1.635-0.7c-1.169,0-2.145,0.891-2.221,2.027c-0.01,0.145-0.082,0.279-0.198,0.366c-0.115,0.088-0.265,0.119-0.407,0.089c-0.638-0.138-1.242-0.098-1.845,0.124c-1.262,0.464-2.144,1.631-2.195,2.906c-0.035,0.875,0.283,1.708,0.895,2.345c0.635,0.661,1.495,1.024,2.423,1.024h8.808c0.276,0,0.5,0.224,0.5,0.5s-0.224,0.5-0.5,0.5h-8.808c-1.185,0-2.331-0.485-3.144-1.332c-0.803-0.835-1.219-1.928-1.173-3.078c0.067-1.674,1.212-3.203,2.849-3.805c0.61-0.224,1.241-0.305,1.88-0.245c0.344-1.395,1.629-2.424,3.135-2.424c0.493,0,0.976,0.113,1.414,0.323c0.009-0.241,0.036-0.483,0.082-0.725c0.381-2.01,2.097-3.586,4.171-3.835c1.363-0.159,2.685,0.218,3.726,1.073c0.748,0.613,1.278,1.409,1.546,2.301c0.791-0.648,1.785-1.006,2.842-1.006c2.458,0,4.457,1.961,4.457,4.373c0,0.034,0,0.068-0.001,0.103c1.764,0.555,3.003,2.188,3.003,4.038C49.164,76.132,47.226,78.034,44.843,78.034z M35.185,78.034h-0.359c-0.276,0-0.5-0.224-0.5-0.5s0.224-0.5,0.5-0.5h0.359c0.276,0,0.5,0.224,0.5,0.5S35.461,78.034,35.185,78.034z"/><path fill="#472b29" d="M43.136,72.23c-0.018,0-0.036-0.002-0.055-0.006c-0.135-0.03-0.219-0.164-0.189-0.299c0.037-0.166,0.094-0.327,0.169-0.479c0.604-1.224,2.274-1.674,3.722-1.007c0.125,0.058,0.18,0.207,0.122,0.332c-0.059,0.125-0.206,0.18-0.332,0.122c-1.201-0.555-2.578-0.209-3.063,0.774c-0.058,0.116-0.101,0.24-0.129,0.367C43.353,72.151,43.25,72.23,43.136,72.23z"/><g><path fill="#472b29" d="M37.977,78.034H36.87c-0.276,0-0.5-0.224-0.5-0.5s0.224-0.5,0.5-0.5h1.107c0.276,0,0.5,0.224,0.5,0.5S38.253,78.034,37.977,78.034z"/></g></g><g><path fill="#472b29" d="M50.9 75.626c-.05 0-.098-.024-.127-.07l-1.962-3.106c-.044-.07-.023-.163.047-.207.07-.044.162-.024.207.047l1.962 3.106c.044.07.023.163-.047.207C50.955 75.619 50.927 75.626 50.9 75.626zM51.9 75.626c-.05 0-.098-.024-.127-.07l-1.962-3.106c-.044-.07-.023-.163.047-.207s.162-.024.207.047l1.962 3.106c.044.07.023.163-.047.207C51.955 75.619 51.927 75.626 51.9 75.626zM52.9 75.626c-.05 0-.098-.024-.127-.07l-1.962-3.106c-.044-.07-.023-.163.047-.207s.163-.024.207.047l1.962 3.106c.044.07.023.163-.047.207C52.955 75.619 52.927 75.626 52.9 75.626zM53.9 75.626c-.05 0-.098-.024-.127-.07l-1.962-3.106c-.044-.07-.023-.163.047-.207s.163-.024.207.047l1.962 3.106c.044.07.023.163-.047.207C53.955 75.619 53.927 75.626 53.9 75.626zM54.9 75.626c-.05 0-.098-.024-.127-.07l-1.962-3.106c-.044-.07-.023-.163.047-.207.071-.044.163-.024.207.047l1.962 3.106c.044.07.023.163-.047.207C54.955 75.619 54.927 75.626 54.9 75.626zM55.9 75.626c-.05 0-.098-.024-.127-.07l-1.962-3.106c-.044-.07-.023-.163.047-.207.071-.044.162-.024.207.047l1.962 3.106c.044.07.023.163-.047.207C55.955 75.619 55.927 75.626 55.9 75.626zM56.9 75.626c-.05 0-.098-.024-.127-.07l-1.297-2.053c-.044-.07-.023-.163.047-.207.071-.044.162-.023.207.047l1.297 2.053c.044.07.023.163-.047.207C56.955 75.619 56.927 75.626 56.9 75.626zM57.9 75.626c-.05 0-.098-.024-.127-.07l-.814-1.289c-.044-.07-.023-.163.047-.207.07-.045.163-.023.207.047l.814 1.289c.044.07.023.163-.047.207C57.955 75.619 57.927 75.626 57.9 75.626z"/></g></g></svg>