<svg xmlns="http://www.w3.org/2000/svg"  viewBox="0 0 100 100" width="90px" height="90px"><path fill="#c7ede6" d="M88.574,56.257c0.3-0.616,0.566-1.264,0.796-1.943c2.633-7.77-1.349-17.078-9.733-19.325C78.73,23.606,70.73,15.797,61.696,14.465C51.355,12.939,41.881,19.509,38.73,29.95c-3.799-1.346-7.501-1.182-10.99,0.857c-1.583,0.732-3.031,1.812-4.33,3.233c-1.907,2.086-3.147,4.719-3.652,7.495c-0.748,0.118-1.483,0.236-2.176,0.484c-4.04,1.449-6.589,4.431-7.288,8.923c-0.435,2.797,0.443,5.587,0.933,6.714c1.935,4.455,6.422,6.98,10.981,6.312c0.227-0.033,0.557,0.069,0.752,0.233c0.241,7.12,3.698,13.417,8.884,17.014c8.321,5.772,19.027,3.994,25.781-3.921c2.894,2.96,6.338,4.398,10.384,3.876c4.023-0.519,7.147-2.739,9.426-6.349c1.053,0.283,2.051,0.691,3.083,0.804c4.042,0.442,7.324-1.165,9.732-4.8c0.922-1.391,1.794-3.194,1.794-6.354C92.044,61.214,90.751,58.247,88.574,56.257z"/><path fill="#fdfcef" d="M76.138,51.182c0,0,11.691,0,11.762,0c2.7,0,4.888-2.189,4.888-4.889c0-2.355-1.666-4.321-3.884-4.784c0.026-0.206,0.043-0.415,0.043-0.628c0-2.796-2.267-5.063-5.063-5.063c-1.651,0-3.113,0.794-4.037,2.017c-0.236-3.113-3.017-5.514-6.27-5.116c-2.379,0.291-4.346,2.13-4.784,4.486c-0.14,0.756-0.126,1.489,0.014,2.177c-0.638-0.687-1.546-1.119-2.557-1.119c-1.85,0-3.361,1.441-3.48,3.261c-0.84-0.186-1.754-0.174-2.717,0.188c-1.84,0.691-3.15,2.423-3.227,4.387c-0.109,2.789,2.12,5.085,4.885,5.085c0.21,0,0.948,0,1.118,0h10.151"/><path fill="#472b29" d="M87.901,51.682H76.139c-0.276,0-0.5-0.224-0.5-0.5s0.224-0.5,0.5-0.5h11.762c2.419,0,4.388-1.969,4.388-4.389c0-2.066-1.466-3.873-3.486-4.295c-0.255-0.053-0.426-0.292-0.394-0.55c0.023-0.187,0.039-0.375,0.039-0.567c0-2.516-2.047-4.563-4.563-4.563c-1.438,0-2.765,0.663-3.638,1.818c-0.125,0.167-0.338,0.239-0.54,0.178c-0.199-0.059-0.342-0.234-0.357-0.441c-0.104-1.377-0.779-2.671-1.851-3.549c-1.082-0.887-2.451-1.282-3.86-1.109c-2.166,0.265-3.956,1.943-4.353,4.081c-0.125,0.667-0.12,1.335,0.012,1.986c0.045,0.219-0.062,0.442-0.261,0.544c-0.198,0.102-0.442,0.06-0.595-0.104c-0.574-0.619-1.352-0.959-2.19-0.959c-1.569,0-2.878,1.227-2.981,2.793c-0.01,0.146-0.082,0.28-0.199,0.367c-0.117,0.087-0.268,0.118-0.408,0.088c-0.841-0.187-1.638-0.131-2.433,0.168c-1.669,0.626-2.836,2.209-2.903,3.938c-0.047,1.207,0.387,2.35,1.222,3.218c0.835,0.868,1.959,1.347,3.164,1.347h11.269c0.276,0,0.5,0.224,0.5,0.5s-0.224,0.5-0.5,0.5H61.713c-1.479,0-2.859-0.587-3.884-1.654c-1.025-1.066-1.558-2.469-1.5-3.95c0.083-2.126,1.51-4.069,3.551-4.835c0.8-0.3,1.628-0.401,2.468-0.299c0.376-1.823,1.997-3.182,3.905-3.182c0.684,0,1.354,0.179,1.944,0.509c0-0.385,0.035-0.772,0.107-1.159c0.476-2.562,2.62-4.573,5.215-4.891c1.679-0.206,3.319,0.266,4.615,1.328c1.004,0.823,1.716,1.951,2.038,3.193c1.012-0.916,2.319-1.425,3.714-1.425c3.067,0,5.563,2.496,5.563,5.563c0,0.083-0.002,0.167-0.007,0.249c2.254,0.672,3.848,2.777,3.848,5.164C93.289,49.264,90.872,51.682,87.901,51.682z"/><path fill="#fdfcef" d="M73.305,40.413c-1.808-0.119-3.365,1.13-3.476,2.789c-0.014,0.206-0.005,0.409,0.025,0.606c-0.349-0.394-0.865-0.661-1.458-0.7c-1.085-0.071-2.022,0.645-2.158,1.62c-0.197-0.054-0.403-0.09-0.616-0.104c-1.582-0.104-2.944,0.989-3.042,2.441"/><path fill="#472b29" d="M62.581,47.314c-0.006,0-0.012,0-0.017,0c-0.138-0.009-0.242-0.128-0.233-0.266c0.106-1.586,1.583-2.787,3.308-2.673c0.135,0.009,0.271,0.026,0.409,0.053c0.273-0.968,1.258-1.638,2.365-1.568c0.425,0.028,0.824,0.161,1.164,0.382c0-0.019,0.002-0.037,0.003-0.055c0.121-1.794,1.794-3.136,3.743-3.022c0.138,0.009,0.242,0.128,0.233,0.266c-0.009,0.138-0.13,0.243-0.266,0.233c-1.658-0.108-3.108,1.038-3.21,2.557c-0.012,0.184-0.004,0.37,0.023,0.552c0.017,0.109-0.041,0.217-0.141,0.264c-0.101,0.047-0.219,0.022-0.293-0.061c-0.317-0.358-0.787-0.583-1.288-0.616c-0.93-0.059-1.775,0.555-1.893,1.405c-0.01,0.071-0.05,0.134-0.11,0.174c-0.06,0.04-0.133,0.051-0.204,0.033c-0.189-0.052-0.38-0.084-0.567-0.096c-1.432-0.099-2.687,0.895-2.776,2.208C62.822,47.213,62.712,47.314,62.581,47.314z"/><path fill="#fdfcef" d="M89.88,42.081c-1.699-0.801-3.664-0.234-4.389,1.267c-0.09,0.186-0.157,0.379-0.201,0.574"/><path fill="#472b29" d="M85.29,44.172c-0.018,0-0.037-0.002-0.056-0.006c-0.134-0.03-0.219-0.165-0.188-0.299c0.049-0.214,0.123-0.425,0.22-0.626c0.783-1.622,2.901-2.243,4.72-1.384c0.125,0.059,0.179,0.208,0.12,0.333c-0.059,0.126-0.209,0.177-0.333,0.12c-1.572-0.742-3.393-0.227-4.057,1.149c-0.081,0.167-0.142,0.342-0.183,0.521C85.507,44.093,85.404,44.172,85.29,44.172z"/><g><path fill="#fff" d="M18.239 48.293H8.209c-.276 0-.5-.224-.5-.5s.224-.5.5-.5h10.03c.276 0 .5.224.5.5S18.515 48.293 18.239 48.293zM21.12 48.293h-1.446c-.276 0-.5-.224-.5-.5s.224-.5.5-.5h1.446c.276 0 .5.224.5.5S21.397 48.293 21.12 48.293zM25.175 48.293h-2.546c-.276 0-.5-.224-.5-.5s.224-.5.5-.5h2.546c.276 0 .5.224.5.5S25.451 48.293 25.175 48.293zM25.175 50.158h-9.616c-.276 0-.5-.224-.5-.5s.224-.5.5-.5h9.616c.276 0 .5.224.5.5S25.451 50.158 25.175 50.158zM13.827 50.158h-.58c-.276 0-.5-.224-.5-.5s.224-.5.5-.5h.58c.276 0 .5.224.5.5S14.103 50.158 13.827 50.158zM11.45 50.158H9.994c-.276 0-.5-.224-.5-.5s.224-.5.5-.5h1.456c.276 0 .5.224.5.5S11.726 50.158 11.45 50.158zM20.586 46.428h-5.027c-.276 0-.5-.224-.5-.5s.224-.5.5-.5h5.027c.276 0 .5.224.5.5S20.862 46.428 20.586 46.428zM20.586 44.563h-1.257c-.276 0-.5-.224-.5-.5s.224-.5.5-.5h1.257c.276 0 .5.224.5.5S20.862 44.563 20.586 44.563zM17.317 52.023h-1.759c-.276 0-.5-.224-.5-.5s.224-.5.5-.5h1.759c.276 0 .5.224.5.5S17.594 52.023 17.317 52.023z"/></g><g><path fill="#fff" d="M71.417 22.016h-10.03c-.276 0-.5-.224-.5-.5s.224-.5.5-.5h10.03c.276 0 .5.224.5.5S71.693 22.016 71.417 22.016zM74.298 22.016h-1.446c-.276 0-.5-.224-.5-.5s.224-.5.5-.5h1.446c.276 0 .5.224.5.5S74.575 22.016 74.298 22.016zM78.353 22.016h-2.546c-.276 0-.5-.224-.5-.5s.224-.5.5-.5h2.546c.276 0 .5.224.5.5S78.629 22.016 78.353 22.016zM76.327 18.287h-9.616c-.276 0-.5-.224-.5-.5s.224-.5.5-.5h9.616c.276 0 .5.224.5.5S76.603 18.287 76.327 18.287zM64.979 18.287h-.58c-.276 0-.5-.224-.5-.5s.224-.5.5-.5h.58c.276 0 .5.224.5.5S65.255 18.287 64.979 18.287zM62.602 18.287h-1.457c-.276 0-.5-.224-.5-.5s.224-.5.5-.5h1.457c.276 0 .5.224.5.5S62.879 18.287 62.602 18.287zM73.764 20.151h-5.027c-.276 0-.5-.224-.5-.5s.224-.5.5-.5h5.027c.276 0 .5.224.5.5S74.04 20.151 73.764 20.151z"/><path fill="#fff" d="M73.764 18.287h-1.257c-.276 0-.5-.224-.5-.5s.224-.5.5-.5h1.257c.276 0 .5.224.5.5S74.04 18.287 73.764 18.287zM67.281 20.151h-1.759c-.276 0-.5-.224-.5-.5s.224-.5.5-.5h1.759c.276 0 .5.224.5.5S67.557 20.151 67.281 20.151z"/></g><g><path fill="#3969d3" d="M66.288,75.836H36.575c-3.766,0-6.847-3.081-6.847-6.847V39.275c0-3.766,3.081-6.847,6.847-6.847h29.713c3.766,0,6.847,3.081,6.847,6.847v29.713C73.135,72.754,70.054,75.836,66.288,75.836z"/><path fill="#472b29" d="M66.288,76.536H36.575c-4.162,0-7.547-3.386-7.547-7.547V39.275c0-4.162,3.386-7.547,7.547-7.547h29.713c4.162,0,7.547,3.386,7.547,7.547v29.713C73.835,73.15,70.45,76.536,66.288,76.536z M36.575,33.128c-3.39,0-6.147,2.757-6.147,6.147v29.713c0,3.39,2.757,6.147,6.147,6.147h29.713c3.39,0,6.147-2.757,6.147-6.147V39.275c0-3.39-2.757-6.147-6.147-6.147H36.575z"/><path fill="#472b29" d="M64.381 73.085H38.482c-3.311 0-6.004-2.693-6.004-6.004V41.183c0-3.311 2.693-6.004 6.004-6.004h24.662c.193 0 .35.157.35.35s-.157.35-.35.35H38.482c-2.924 0-5.304 2.379-5.304 5.304v25.898c0 2.924 2.379 5.304 5.304 5.304h25.898c2.924 0 5.304-2.379 5.304-5.304V52.754c0-.193.157-.35.35-.35s.35.157.35.35v14.327C70.385 70.392 67.691 73.085 64.381 73.085zM70.035 51.037c-.193 0-.35-.157-.35-.35v-2.756c0-.193.157-.35.35-.35s.35.157.35.35v2.756C70.385 50.88 70.228 51.037 70.035 51.037z"/><g><path fill="#472b29" d="M70.035,46.903c-0.193,0-0.35-0.157-0.35-0.35v-1.378c0-0.193,0.157-0.35,0.35-0.35s0.35,0.157,0.35,0.35v1.378C70.385,46.746,70.228,46.903,70.035,46.903z"/></g></g><g><path fill="#fdfcef" d="M41.333,77.786c1.883,0,3.517,0,3.54,0c2.11,0,3.821-1.674,3.821-3.739c0-1.802-1.302-3.305-3.035-3.66c0.02-0.158,0.034-0.317,0.034-0.48c0-2.139-1.772-3.873-3.957-3.873c-1.29,0-2.433,0.607-3.155,1.543c-0.185-2.381-2.358-4.218-4.9-3.913c-1.859,0.223-3.397,1.629-3.739,3.431c-0.11,0.578-0.098,1.139,0.011,1.665c-0.498-0.525-1.208-0.856-1.998-0.856c-1.446,0-2.627,1.102-2.72,2.494c-0.657-0.142-1.371-0.133-2.123,0.143c-1.438,0.528-2.462,1.853-2.522,3.356c-0.085,2.133,1.657,3.889,3.818,3.889c0.164,0,0.741,0,0.874,0h7.934 M34.856,77.786h0.36"/><path fill="#472b29" d="M44.874,78.286h-3.541c-0.276,0-0.5-0.224-0.5-0.5s0.224-0.5,0.5-0.5h3.541c1.831,0,3.32-1.453,3.32-3.239c0-1.524-1.108-2.857-2.635-3.17c-0.256-0.052-0.429-0.293-0.396-0.553c0.018-0.137,0.029-0.276,0.029-0.417c0-1.86-1.551-3.373-3.457-3.373c-1.092,0-2.098,0.491-2.759,1.348c-0.127,0.164-0.341,0.233-0.539,0.173c-0.198-0.059-0.339-0.234-0.355-0.44c-0.079-1.019-0.565-1.944-1.37-2.604c-0.828-0.68-1.885-0.981-2.973-0.852c-1.646,0.197-3.006,1.442-3.307,3.028c-0.094,0.494-0.091,0.988,0.01,1.471c0.045,0.219-0.06,0.441-0.258,0.544c-0.197,0.104-0.44,0.064-0.595-0.099c-0.428-0.452-1.009-0.7-1.636-0.7c-1.169,0-2.145,0.891-2.221,2.027c-0.01,0.145-0.082,0.279-0.198,0.366c-0.116,0.088-0.263,0.12-0.407,0.089c-0.638-0.139-1.242-0.098-1.845,0.124c-1.262,0.464-2.144,1.632-2.195,2.906c-0.035,0.875,0.283,1.708,0.895,2.345c0.635,0.661,1.496,1.024,2.423,1.024h8.808c0.276,0,0.5,0.224,0.5,0.5s-0.224,0.5-0.5,0.5h-8.808c-1.185,0-2.331-0.485-3.145-1.332c-0.802-0.835-1.219-1.928-1.173-3.078c0.067-1.674,1.212-3.203,2.85-3.805c0.61-0.224,1.242-0.305,1.88-0.245c0.344-1.395,1.629-2.424,3.135-2.424c0.493,0,0.977,0.113,1.414,0.323c0.009-0.242,0.037-0.484,0.083-0.726c0.382-2.009,2.097-3.586,4.17-3.834c1.363-0.16,2.685,0.218,3.726,1.072c0.748,0.613,1.278,1.409,1.546,2.302c0.791-0.648,1.785-1.007,2.842-1.007c2.458,0,4.457,1.962,4.457,4.373c0,0.034,0,0.068-0.001,0.102c1.764,0.555,3.003,2.188,3.003,4.038C49.194,76.384,47.256,78.286,44.874,78.286z M35.216,78.286h-0.359c-0.276,0-0.5-0.224-0.5-0.5s0.224-0.5,0.5-0.5h0.359c0.276,0,0.5,0.224,0.5,0.5S35.492,78.286,35.216,78.286z"/><path fill="#472b29" d="M43.166,72.483c-0.018,0-0.037-0.002-0.055-0.006c-0.135-0.03-0.219-0.164-0.188-0.299c0.038-0.167,0.095-0.328,0.169-0.479c0.604-1.224,2.273-1.676,3.722-1.006c0.125,0.058,0.18,0.207,0.122,0.332c-0.059,0.125-0.207,0.179-0.332,0.122c-1.206-0.558-2.579-0.209-3.063,0.774c-0.058,0.116-0.101,0.24-0.13,0.368C43.384,72.404,43.28,72.483,43.166,72.483z"/><g><path fill="#472b29" d="M38.007,78.286H36.9c-0.276,0-0.5-0.224-0.5-0.5s0.224-0.5,0.5-0.5h1.107c0.276,0,0.5,0.224,0.5,0.5S38.284,78.286,38.007,78.286z"/></g></g><g><path fill="#472b29" d="M50.93 75.991c-.05 0-.098-.024-.127-.07l-1.962-3.106c-.044-.07-.023-.163.047-.207.069-.043.162-.023.207.047l1.962 3.106c.044.07.023.163-.047.207C50.985 75.983 50.957 75.991 50.93 75.991zM51.93 75.991c-.05 0-.098-.024-.127-.07l-1.962-3.106c-.044-.07-.023-.163.047-.207.07-.043.162-.023.207.047l1.962 3.106c.044.07.023.163-.047.207C51.985 75.983 51.957 75.991 51.93 75.991zM52.93 75.991c-.05 0-.098-.024-.127-.07l-1.962-3.106c-.044-.07-.023-.163.047-.207.07-.043.162-.023.207.047l1.962 3.106c.044.07.023.163-.047.207C52.985 75.983 52.957 75.991 52.93 75.991zM53.93 75.991c-.05 0-.098-.024-.127-.07l-1.962-3.106c-.044-.07-.023-.163.047-.207.07-.043.162-.023.207.047l1.962 3.106c.044.07.023.163-.047.207C53.985 75.983 53.957 75.991 53.93 75.991zM54.93 75.991c-.05 0-.098-.024-.127-.07l-1.962-3.106c-.044-.07-.023-.163.047-.207.07-.043.162-.023.207.047l1.962 3.106c.044.07.023.163-.047.207C54.985 75.983 54.957 75.991 54.93 75.991zM55.93 75.991c-.05 0-.098-.024-.127-.07l-1.962-3.106c-.044-.07-.023-.163.047-.207.07-.043.163-.023.207.047l1.962 3.106c.044.07.023.163-.047.207C55.985 75.983 55.957 75.991 55.93 75.991zM56.93 75.991c-.05 0-.098-.024-.127-.07l-1.297-2.052c-.044-.07-.023-.163.047-.207.07-.043.163-.023.207.047l1.297 2.052c.044.07.023.163-.047.207C56.985 75.983 56.957 75.991 56.93 75.991zM57.93 75.991c-.05 0-.098-.024-.127-.07l-.814-1.289c-.044-.07-.023-.163.047-.207.07-.044.163-.023.207.047l.814 1.289c.044.07.023.163-.047.207C57.985 75.983 57.957 75.991 57.93 75.991z"/></g><g><path fill="#fdfcee" d="M44.398,45.748v14.2h6.68v1.802h-8.89V45.748H44.398z"/><path fill="#472b29" d="M51.078,62.05h-8.89c-0.166,0-0.3-0.134-0.3-0.3V45.748c0-0.166,0.134-0.3,0.3-0.3h2.21c0.166,0,0.3,0.134,0.3,0.3v13.9h6.38c0.166,0,0.3,0.134,0.3,0.3v1.802C51.378,61.916,51.244,62.05,51.078,62.05z M42.488,61.45h8.291v-1.203h-6.38c-0.166,0-0.3-0.134-0.3-0.3v-13.9h-1.611V61.45z"/><g><path fill="#fdfcee" d="M59.896,51.995h-0.553c-0.849,0-1.582,0.16-2.198,0.48c-0.617,0.321-1.141,0.841-1.574,1.562v7.713h-2.162V50.217h2.066v2.211c0.336-0.769,0.781-1.354,1.334-1.754c0.553-0.4,1.286-0.601,2.198-0.601c0.352,0,0.649,0.04,0.889,0.12V51.995z"/><path fill="#472b29" d="M55.571,62.05h-2.163c-0.166,0-0.3-0.134-0.3-0.3V50.217c0-0.166,0.134-0.3,0.3-0.3h2.066c0.166,0,0.3,0.134,0.3,0.3v1.078c0.252-0.344,0.539-0.633,0.858-0.864c0.603-0.436,1.402-0.657,2.374-0.657c0.382,0,0.713,0.045,0.983,0.135c0.123,0.041,0.206,0.155,0.206,0.285v1.802c0,0.166-0.134,0.3-0.3,0.3h-0.553c-0.797,0-1.49,0.15-2.06,0.447c-0.544,0.283-1.019,0.748-1.412,1.38v7.628C55.871,61.916,55.737,62.05,55.571,62.05z M53.708,61.45h1.563v-7.413c0-0.054,0.015-0.107,0.042-0.154c0.458-0.765,1.028-1.329,1.692-1.674c0.657-0.341,1.443-0.514,2.337-0.514h0.253v-1.271c-0.17-0.034-0.367-0.051-0.589-0.051c-0.843,0-1.524,0.183-2.022,0.544c-0.506,0.366-0.921,0.915-1.234,1.631c-0.057,0.13-0.195,0.203-0.336,0.173c-0.139-0.029-0.238-0.151-0.238-0.293v-1.911h-1.467V61.45z"/></g></g></svg>