<svg xmlns="http://www.w3.org/2000/svg"  viewBox="0 0 100 100" width="90px" height="90px"><path fill="#c7ede6" d="M88.075,56.131c0.3-0.616,0.566-1.264,0.796-1.943c2.633-7.77-1.349-17.078-9.733-19.325c-0.906-11.384-8.906-19.193-17.941-20.526c-10.341-1.525-19.814,5.044-22.966,15.485c-3.799-1.346-7.501-1.182-10.99,0.857c-1.583,0.732-3.031,1.812-4.33,3.233c-1.907,2.086-3.147,4.719-3.652,7.495c-0.748,0.118-1.483,0.236-2.176,0.484c-4.04,1.449-6.589,4.431-7.288,8.923c-0.435,2.797,0.443,5.587,0.933,6.714c1.935,4.455,6.422,6.98,10.981,6.312c0.227-0.033,0.557,0.069,0.752,0.233c0.241,7.12,3.698,13.417,8.884,17.014c8.321,5.772,19.027,3.994,25.781-3.921c2.894,2.96,6.338,4.398,10.384,3.876c4.023-0.519,7.147-2.739,9.426-6.349c1.053,0.283,2.051,0.691,3.083,0.804c4.042,0.442,7.324-1.165,9.732-4.8c0.922-1.391,1.793-3.194,1.793-6.354C91.545,61.088,90.252,58.121,88.075,56.131z"/><path fill="#fdfcef" d="M75.64,51.056c0,0,11.691,0,11.762,0c2.7,0,4.888-2.189,4.888-4.889c0-2.355-1.666-4.321-3.884-4.784c0.026-0.206,0.043-0.415,0.043-0.628c0-2.796-2.267-5.063-5.063-5.063c-1.651,0-3.113,0.794-4.037,2.017c-0.236-3.113-3.017-5.514-6.27-5.116c-2.379,0.291-4.346,2.13-4.784,4.486c-0.14,0.756-0.126,1.489,0.014,2.177c-0.638-0.687-1.546-1.119-2.557-1.119c-1.85,0-3.361,1.441-3.48,3.261c-0.84-0.186-1.754-0.174-2.717,0.188c-1.84,0.691-3.15,2.423-3.227,4.387c-0.109,2.789,2.12,5.085,4.885,5.085c0.21,0,0.948,0,1.118,0h10.151"/><path fill="#472b29" d="M87.402,51.556H75.639c-0.276,0-0.5-0.224-0.5-0.5s0.224-0.5,0.5-0.5h11.763c2.419,0,4.388-1.969,4.388-4.389c0-2.066-1.466-3.873-3.486-4.295c-0.255-0.053-0.427-0.294-0.394-0.553c0.023-0.186,0.039-0.373,0.039-0.565c0-2.516-2.047-4.563-4.562-4.563c-1.439,0-2.766,0.663-3.638,1.818c-0.126,0.166-0.343,0.237-0.54,0.179c-0.2-0.059-0.342-0.235-0.358-0.442c-0.104-1.377-0.778-2.671-1.85-3.549c-1.082-0.887-2.451-1.283-3.86-1.109c-2.166,0.265-3.956,1.943-4.354,4.081c-0.123,0.67-0.119,1.338,0.014,1.986c0.045,0.22-0.062,0.442-0.262,0.545c-0.197,0.102-0.442,0.06-0.595-0.104c-0.574-0.619-1.353-0.959-2.19-0.959c-1.569,0-2.879,1.227-2.981,2.793c-0.01,0.146-0.082,0.28-0.199,0.367s-0.269,0.118-0.407,0.088c-0.844-0.187-1.639-0.131-2.434,0.167c-1.669,0.626-2.836,2.209-2.902,3.938c-0.048,1.207,0.386,2.35,1.221,3.218c0.836,0.869,1.959,1.347,3.164,1.347h11.269c0.276,0,0.5,0.224,0.5,0.5s-0.224,0.5-0.5,0.5H61.215c-1.479,0-2.859-0.587-3.885-1.654c-1.025-1.066-1.558-2.469-1.5-3.95c0.083-2.126,1.51-4.069,3.551-4.836c0.8-0.301,1.629-0.401,2.468-0.298c0.377-1.823,1.997-3.182,3.905-3.182c0.685,0,1.354,0.179,1.943,0.509c0-0.384,0.035-0.771,0.107-1.158c0.476-2.562,2.62-4.574,5.215-4.891c1.685-0.207,3.32,0.266,4.615,1.328c1.004,0.823,1.716,1.951,2.038,3.193c1.012-0.916,2.319-1.425,3.714-1.425c3.067,0,5.562,2.496,5.562,5.563c0,0.083-0.002,0.167-0.007,0.249c2.254,0.673,3.848,2.777,3.848,5.164C92.79,49.138,90.373,51.556,87.402,51.556z"/><path fill="#fdfcef" d="M72.807,40.287c-1.808-0.119-3.365,1.13-3.476,2.789c-0.014,0.206-0.005,0.409,0.025,0.606c-0.349-0.394-0.865-0.661-1.458-0.7c-1.085-0.071-2.022,0.645-2.158,1.62c-0.197-0.054-0.403-0.09-0.616-0.104c-1.582-0.104-2.944,0.989-3.042,2.441"/><path fill="#472b29" d="M62.082,47.188c-0.006,0-0.011,0-0.017,0c-0.138-0.009-0.242-0.128-0.232-0.266c0.106-1.586,1.567-2.784,3.308-2.674c0.135,0.009,0.271,0.027,0.408,0.053c0.274-0.968,1.25-1.644,2.366-1.568c0.425,0.028,0.823,0.161,1.163,0.382c0.001-0.019,0.002-0.038,0.004-0.056c0.119-1.793,1.802-3.144,3.741-3.021c0.138,0.009,0.242,0.128,0.232,0.266c-0.008,0.137-0.094,0.245-0.266,0.233c-1.648-0.115-3.108,1.037-3.21,2.557c-0.013,0.182-0.005,0.368,0.023,0.551c0.017,0.11-0.04,0.217-0.141,0.264c-0.101,0.047-0.221,0.023-0.293-0.06c-0.323-0.364-0.781-0.583-1.288-0.617c-0.95-0.061-1.775,0.555-1.894,1.405c-0.011,0.071-0.051,0.134-0.11,0.174s-0.135,0.051-0.203,0.033c-0.189-0.051-0.38-0.084-0.567-0.096c-1.442-0.099-2.688,0.896-2.776,2.208C62.322,47.087,62.213,47.188,62.082,47.188z"/><path fill="#fdfcef" d="M89.381,41.955c-1.699-0.801-3.664-0.234-4.389,1.267c-0.09,0.186-0.157,0.379-0.201,0.574"/><path fill="#472b29" d="M84.792,44.046c-0.018,0-0.036-0.002-0.055-0.006c-0.135-0.031-0.22-0.165-0.189-0.299c0.049-0.215,0.122-0.427,0.219-0.627c0.784-1.624,2.905-2.241,4.722-1.384c0.125,0.059,0.179,0.208,0.12,0.333c-0.06,0.126-0.21,0.178-0.333,0.12c-1.575-0.741-3.394-0.226-4.059,1.149c-0.08,0.167-0.141,0.341-0.181,0.52C85.009,43.967,84.906,44.046,84.792,44.046z"/><g><path fill="#fff" d="M17.74 48.167H7.71c-.276 0-.5-.224-.5-.5s.224-.5.5-.5h10.03c.276 0 .5.224.5.5S18.016 48.167 17.74 48.167zM20.622 48.167h-1.446c-.276 0-.5-.224-.5-.5s.224-.5.5-.5h1.446c.276 0 .5.224.5.5S20.898 48.167 20.622 48.167zM24.676 48.167h-2.546c-.276 0-.5-.224-.5-.5s.224-.5.5-.5h2.546c.276 0 .5.224.5.5S24.953 48.167 24.676 48.167zM24.676 50.032H15.06c-.276 0-.5-.224-.5-.5s.224-.5.5-.5h9.616c.276 0 .5.224.5.5S24.953 50.032 24.676 50.032zM13.328 50.032h-.58c-.276 0-.5-.224-.5-.5s.224-.5.5-.5h.58c.276 0 .5.224.5.5S13.604 50.032 13.328 50.032zM10.952 50.032H9.495c-.276 0-.5-.224-.5-.5s.224-.5.5-.5h1.457c.276 0 .5.224.5.5S11.228 50.032 10.952 50.032zM20.088 46.302H15.06c-.276 0-.5-.224-.5-.5s.224-.5.5-.5h5.027c.276 0 .5.224.5.5S20.364 46.302 20.088 46.302zM20.088 44.438H18.83c-.276 0-.5-.224-.5-.5s.224-.5.5-.5h1.258c.276 0 .5.224.5.5S20.364 44.438 20.088 44.438zM16.818 51.897H15.06c-.276 0-.5-.224-.5-.5s.224-.5.5-.5h1.758c.276 0 .5.224.5.5S17.094 51.897 16.818 51.897z"/></g><g><path fill="#fff" d="M70.919 21.89H60.887c-.276 0-.5-.224-.5-.5s.224-.5.5-.5h10.031c.276 0 .5.224.5.5S71.195 21.89 70.919 21.89zM73.799 21.89h-1.446c-.276 0-.5-.224-.5-.5s.224-.5.5-.5h1.446c.276 0 .5.224.5.5S74.076 21.89 73.799 21.89zM77.854 21.89h-2.546c-.276 0-.5-.224-.5-.5s.224-.5.5-.5h2.546c.276 0 .5.224.5.5S78.131 21.89 77.854 21.89zM75.828 18.161h-9.616c-.276 0-.5-.224-.5-.5s.224-.5.5-.5h9.616c.276 0 .5.224.5.5S76.104 18.161 75.828 18.161zM64.48 18.161H63.9c-.276 0-.5-.224-.5-.5s.224-.5.5-.5h.58c.276 0 .5.224.5.5S64.757 18.161 64.48 18.161zM62.103 18.161h-1.456c-.276 0-.5-.224-.5-.5s.224-.5.5-.5h1.456c.276 0 .5.224.5.5S62.38 18.161 62.103 18.161zM73.265 20.025h-5.027c-.276 0-.5-.224-.5-.5s.224-.5.5-.5h5.027c.276 0 .5.224.5.5S73.542 20.025 73.265 20.025z"/><path fill="#fff" d="M73.265 18.161h-1.258c-.276 0-.5-.224-.5-.5s.224-.5.5-.5h1.258c.276 0 .5.224.5.5S73.542 18.161 73.265 18.161zM66.782 20.025h-1.758c-.276 0-.5-.224-.5-.5s.224-.5.5-.5h1.758c.276 0 .5.224.5.5S67.058 20.025 66.782 20.025z"/></g><g><path fill="#a1a1ca" d="M65.789,75.709H36.076c-3.766,0-6.847-3.081-6.847-6.847V39.149c0-3.766,3.081-6.847,6.847-6.847h29.713c3.766,0,6.847,3.081,6.847,6.847v29.713C72.636,72.628,69.555,75.709,65.789,75.709z"/><path fill="#472b29" d="M65.79,76.41H36.076c-4.161,0-7.547-3.386-7.547-7.547V39.149c0-4.162,3.386-7.548,7.547-7.548H65.79c4.161,0,7.547,3.386,7.547,7.548v29.713C73.337,73.024,69.951,76.41,65.79,76.41z M36.076,33.002c-3.39,0-6.146,2.758-6.146,6.147v29.713c0,3.39,2.757,6.147,6.146,6.147H65.79c3.39,0,6.146-2.757,6.146-6.147V39.149c0-3.39-2.757-6.147-6.146-6.147H36.076z"/><path fill="#472b29" d="M63.882 72.959H37.983c-3.311 0-6.003-2.693-6.003-6.004V41.057c0-3.311 2.692-6.004 6.003-6.004h24.663c.193 0 .35.157.35.35s-.156.35-.35.35H37.983c-2.924 0-5.304 2.379-5.304 5.304v25.898c0 2.924 2.38 5.304 5.304 5.304h25.898c2.925 0 5.305-2.379 5.305-5.304V52.628c0-.193.156-.35.35-.35s.35.157.35.35v14.327C69.885 70.266 67.192 72.959 63.882 72.959zM69.536 50.911c-.193 0-.35-.157-.35-.35v-2.756c0-.193.156-.35.35-.35s.35.157.35.35v2.756C69.885 50.754 69.729 50.911 69.536 50.911z"/><g><path fill="#472b29" d="M69.536,46.777c-0.193,0-0.35-0.157-0.35-0.35v-1.378c0-0.193,0.156-0.35,0.35-0.35s0.35,0.157,0.35,0.35v1.378C69.885,46.62,69.729,46.777,69.536,46.777z"/></g><g><path fill="#fdfcee" d="M53.193,62.016h-2.331l-1.513-3.993h-7.714l-1.488,3.993h-2.331l6.573-16.518h2.232L53.193,62.016z M42.329,56.188h6.35l-3.175-8.607L42.329,56.188z"/><path fill="#472b29" d="M53.193,62.316h-2.332c-0.125,0-0.236-0.077-0.28-0.193l-1.439-3.8h-7.299l-1.415,3.798c-0.044,0.117-0.156,0.195-0.281,0.195h-2.331c-0.1,0-0.192-0.049-0.248-0.131c-0.056-0.083-0.067-0.187-0.03-0.279l6.572-16.518c0.045-0.114,0.155-0.189,0.278-0.189h2.232c0.123,0,0.233,0.075,0.278,0.189l6.573,16.518c0.037,0.092,0.025,0.197-0.03,0.279C53.385,62.267,53.293,62.316,53.193,62.316z M51.068,61.717h1.683l-6.334-15.918H44.59l-6.333,15.918h1.681l1.415-3.798c0.044-0.117,0.156-0.195,0.281-0.195h7.714c0.125,0,0.236,0.077,0.28,0.193L51.068,61.717z M48.678,56.488h-6.35c-0.098,0-0.19-0.048-0.246-0.128s-0.069-0.183-0.035-0.275l3.175-8.606c0.086-0.235,0.477-0.235,0.562,0l3.175,8.606c0.034,0.092,0.021,0.195-0.035,0.275S48.776,56.488,48.678,56.488z M42.759,55.888h5.488l-2.744-7.44L42.759,55.888z"/><g><path fill="#fdfcee" d="M60.088,49.864c0.76,0,1.426,0.124,1.996,0.372c0.571,0.248,1.05,0.587,1.438,1.017c0.388,0.43,0.678,0.939,0.869,1.525c0.19,0.587,0.285,1.22,0.285,1.897c0,0.678-0.083,1.348-0.248,2.009h-7.515c0.016,0.579,0.1,1.1,0.248,1.563c0.149,0.463,0.375,0.864,0.682,1.203c0.306,0.339,0.703,0.599,1.191,0.781c0.488,0.182,1.079,0.272,1.774,0.272c0.645,0,1.252-0.066,1.823-0.198c0.571-0.132,1.095-0.297,1.575-0.496l0.297,1.662c-0.529,0.248-1.145,0.443-1.848,0.583c-0.703,0.141-1.426,0.211-2.17,0.211c-0.992,0-1.856-0.161-2.592-0.484c-0.736-0.322-1.344-0.76-1.823-1.315c-0.48-0.554-0.84-1.203-1.079-1.947c-0.24-0.744-0.359-1.545-0.359-2.406c0-0.859,0.124-1.67,0.372-2.43c0.248-0.76,0.608-1.426,1.079-1.997c0.472-0.571,1.046-1.017,1.724-1.34C58.484,50.024,59.244,49.864,60.088,49.864z M60.013,51.525c-0.48,0-0.902,0.091-1.265,0.272c-0.364,0.182-0.678,0.43-0.943,0.744c-0.264,0.314-0.471,0.682-0.62,1.103c-0.149,0.422-0.24,0.865-0.273,1.327h5.605c0.05-0.463,0.041-0.906-0.025-1.327c-0.066-0.421-0.198-0.789-0.396-1.103c-0.198-0.314-0.472-0.562-0.819-0.744C60.931,51.616,60.509,51.525,60.013,51.525z"/><path fill="#472b29" d="M60.484,62.564c-1.029,0-1.941-0.171-2.712-0.509c-0.774-0.339-1.424-0.808-1.93-1.393c-0.503-0.58-0.886-1.271-1.138-2.051c-0.248-0.77-0.373-1.61-0.373-2.498c0-0.891,0.13-1.74,0.387-2.523c0.257-0.791,0.638-1.496,1.132-2.095c0.498-0.602,1.112-1.079,1.826-1.419c0.716-0.34,1.526-0.512,2.411-0.512c0.8,0,1.512,0.133,2.116,0.397c0.608,0.264,1.127,0.631,1.541,1.091c0.416,0.459,0.729,1.009,0.931,1.633c0.199,0.613,0.3,1.283,0.3,1.99c0,0.699-0.086,1.399-0.257,2.082c-0.033,0.133-0.153,0.227-0.291,0.227h-7.199c0.031,0.425,0.104,0.817,0.219,1.171c0.135,0.421,0.343,0.79,0.618,1.094c0.271,0.301,0.633,0.537,1.072,0.701c0.879,0.328,2.306,0.323,3.424,0.063c0.549-0.127,1.063-0.289,1.529-0.481c0.082-0.035,0.179-0.03,0.259,0.014c0.079,0.044,0.135,0.121,0.15,0.21l0.297,1.662c0.024,0.133-0.045,0.267-0.167,0.324c-0.549,0.258-1.193,0.461-1.917,0.605C61.992,62.492,61.242,62.564,60.484,62.564z M60.088,50.164c-0.795,0-1.52,0.153-2.153,0.454c-0.635,0.302-1.18,0.726-1.621,1.26c-0.446,0.54-0.79,1.179-1.024,1.898c-0.237,0.724-0.357,1.51-0.357,2.337c0,0.826,0.116,1.604,0.344,2.314c0.228,0.703,0.571,1.323,1.021,1.842c0.447,0.518,1.024,0.934,1.716,1.236c0.694,0.305,1.526,0.459,2.472,0.459c0.719,0,1.429-0.069,2.111-0.206c0.585-0.116,1.111-0.273,1.569-0.467l-0.191-1.072c-0.399,0.146-0.828,0.272-1.276,0.376c-1.23,0.286-2.777,0.285-3.769-0.085c-0.531-0.198-0.972-0.488-1.309-0.861c-0.333-0.368-0.583-0.81-0.745-1.312c-0.157-0.492-0.246-1.046-0.262-1.646c-0.002-0.081,0.028-0.16,0.085-0.218c0.057-0.058,0.134-0.09,0.215-0.09h7.277c0.123-0.563,0.186-1.137,0.186-1.709c0-0.644-0.091-1.251-0.271-1.805c-0.176-0.543-0.446-1.019-0.806-1.416c-0.356-0.396-0.806-0.713-1.335-0.942C61.435,50.281,60.804,50.164,60.088,50.164z M62.517,55.272h-5.604c-0.083,0-0.163-0.035-0.22-0.095c-0.057-0.061-0.086-0.143-0.079-0.226c0.034-0.489,0.132-0.962,0.289-1.406c0.16-0.454,0.387-0.856,0.673-1.197c0.289-0.343,0.638-0.618,1.037-0.819c0.822-0.412,2.04-0.397,2.804,0.002c0.395,0.208,0.708,0.494,0.934,0.85c0.219,0.347,0.366,0.756,0.438,1.217c0.07,0.449,0.079,0.922,0.026,1.406C62.799,55.157,62.671,55.272,62.517,55.272z M57.246,54.673h4.995c0.02-0.338,0.004-0.667-0.045-0.981c-0.06-0.378-0.179-0.712-0.354-0.989c-0.17-0.27-0.4-0.479-0.704-0.639c-0.595-0.311-1.605-0.323-2.257,0.003c-0.325,0.164-0.61,0.389-0.847,0.669c-0.239,0.285-0.43,0.625-0.565,1.01C57.364,54.041,57.29,54.352,57.246,54.673z"/></g></g></g><g><path fill="#fdfcef" d="M40.835,77.66c1.883,0,3.517,0,3.54,0c2.11,0,3.821-1.674,3.821-3.739c0-1.802-1.302-3.305-3.035-3.66c0.02-0.158,0.034-0.317,0.034-0.48c0-2.139-1.772-3.873-3.957-3.873c-1.29,0-2.433,0.607-3.155,1.543c-0.185-2.381-2.358-4.218-4.9-3.913c-1.859,0.223-3.397,1.629-3.739,3.431c-0.11,0.578-0.098,1.139,0.011,1.665c-0.498-0.525-1.208-0.856-1.998-0.856c-1.446,0-2.627,1.102-2.72,2.494c-0.657-0.142-1.371-0.133-2.123,0.143c-1.438,0.528-2.462,1.853-2.522,3.356c-0.085,2.133,1.657,3.889,3.818,3.889c0.164,0,0.741,0,0.874,0h7.934 M34.357,77.66h0.36"/><path fill="#472b29" d="M44.375,78.16h-3.54c-0.276,0-0.5-0.224-0.5-0.5s0.224-0.5,0.5-0.5h3.54c1.831,0,3.321-1.453,3.321-3.239c0-1.524-1.108-2.857-2.637-3.17c-0.257-0.052-0.429-0.294-0.396-0.554c0.018-0.137,0.03-0.275,0.03-0.416c0-1.86-1.551-3.373-3.457-3.373c-1.093,0-2.099,0.491-2.76,1.348c-0.125,0.164-0.343,0.233-0.538,0.174c-0.198-0.059-0.34-0.234-0.355-0.44c-0.079-1.019-0.565-1.943-1.37-2.603c-0.828-0.68-1.885-0.983-2.973-0.853c-1.646,0.197-3.006,1.442-3.308,3.028c-0.094,0.494-0.09,0.989,0.01,1.471c0.046,0.219-0.06,0.441-0.258,0.544c-0.197,0.103-0.44,0.064-0.594-0.099c-0.429-0.452-1.01-0.7-1.636-0.7c-1.17,0-2.146,0.891-2.221,2.027c-0.01,0.145-0.082,0.279-0.198,0.366c-0.115,0.087-0.263,0.119-0.406,0.089c-0.641-0.139-1.242-0.098-1.847,0.124c-1.262,0.464-2.144,1.632-2.193,2.906c-0.035,0.875,0.282,1.708,0.895,2.345c0.635,0.66,1.495,1.024,2.423,1.024h8.808c0.276,0,0.5,0.224,0.5,0.5s-0.224,0.5-0.5,0.5h-8.808c-1.185,0-2.331-0.485-3.144-1.331c-0.803-0.835-1.219-1.928-1.174-3.078c0.066-1.674,1.212-3.203,2.849-3.805c0.61-0.225,1.245-0.307,1.881-0.245c0.345-1.396,1.629-2.424,3.136-2.424c0.499,0,0.979,0.11,1.413,0.319c0.009-0.24,0.036-0.481,0.082-0.721c0.382-2.01,2.098-3.586,4.171-3.835c1.365-0.161,2.686,0.218,3.727,1.073c0.747,0.613,1.278,1.409,1.546,2.301c0.791-0.648,1.785-1.006,2.843-1.006c2.458,0,4.457,1.961,4.457,4.373c0,0.034-0.001,0.068-0.002,0.103c1.765,0.555,3.004,2.188,3.004,4.038C48.696,76.258,46.757,78.16,44.375,78.16z M34.716,78.16h-0.359c-0.276,0-0.5-0.224-0.5-0.5s0.224-0.5,0.5-0.5h0.359c0.276,0,0.5,0.224,0.5,0.5S34.993,78.16,34.716,78.16z"/><path fill="#472b29" d="M42.668,72.356c-0.018,0-0.036-0.002-0.055-0.006c-0.135-0.03-0.22-0.164-0.189-0.299c0.038-0.167,0.095-0.329,0.17-0.479c0.604-1.223,2.273-1.675,3.721-1.006c0.126,0.058,0.181,0.207,0.122,0.332c-0.058,0.125-0.208,0.18-0.331,0.122c-1.207-0.559-2.579-0.209-3.063,0.774c-0.058,0.115-0.102,0.238-0.13,0.367C42.885,72.277,42.782,72.356,42.668,72.356z"/><g><path fill="#472b29" d="M37.508,78.16h-1.107c-0.276,0-0.5-0.224-0.5-0.5s0.224-0.5,0.5-0.5h1.107c0.276,0,0.5,0.224,0.5,0.5S37.785,78.16,37.508,78.16z"/></g></g><g><path fill="#472b29" d="M49.93 75.991c-.05 0-.099-.024-.127-.07l-1.963-3.106c-.044-.07-.023-.163.047-.207.069-.043.163-.023.207.047l1.963 3.106c.044.07.023.163-.047.207C49.986 75.983 49.958 75.991 49.93 75.991zM50.93 75.991c-.05 0-.099-.024-.127-.07l-1.963-3.106c-.044-.07-.023-.163.047-.207.068-.043.163-.023.207.047l1.963 3.106c.044.07.023.163-.047.207C50.986 75.983 50.958 75.991 50.93 75.991zM51.93 75.991c-.05 0-.099-.024-.127-.07l-1.963-3.106c-.044-.07-.023-.163.047-.207.068-.043.163-.023.207.047l1.963 3.106c.044.07.023.163-.047.207C51.986 75.983 51.958 75.991 51.93 75.991zM52.93 75.991c-.05 0-.099-.024-.127-.07l-1.963-3.106c-.044-.07-.023-.163.047-.207.068-.043.163-.023.207.047l1.963 3.106c.044.07.023.163-.047.207C52.986 75.983 52.958 75.991 52.93 75.991zM53.93 75.991c-.05 0-.099-.024-.127-.07l-1.963-3.106c-.044-.07-.023-.163.047-.207.068-.043.163-.023.207.047l1.963 3.106c.044.07.023.163-.047.207C53.986 75.983 53.958 75.991 53.93 75.991zM54.93 75.991c-.05 0-.099-.024-.127-.07l-1.963-3.106c-.044-.07-.023-.163.047-.207.069-.043.162-.023.207.047l1.963 3.106c.044.07.023.163-.047.207C54.986 75.983 54.958 75.991 54.93 75.991zM55.93 75.991c-.05 0-.099-.024-.127-.07l-1.297-2.052c-.044-.07-.023-.163.047-.207.068-.043.164-.023.207.047l1.297 2.052c.044.07.023.163-.047.207C55.986 75.983 55.958 75.991 55.93 75.991zM56.93 75.991c-.05 0-.099-.024-.127-.07l-.814-1.289c-.044-.07-.023-.163.047-.207.068-.044.164-.023.207.047l.814 1.289c.044.07.023.163-.047.207C56.986 75.983 56.958 75.991 56.93 75.991z"/></g></svg>