<svg xmlns="http://www.w3.org/2000/svg"  viewBox="0 0 100 100" width="90px" height="90px"><path fill="#c7ede6" d="M87.215,56.71C88.35,54.555,89,52.105,89,49.5c0-6.621-4.159-12.257-10.001-14.478 C78.999,35.015,79,35.008,79,35c0-11.598-9.402-21-21-21c-9.784,0-17.981,6.701-20.313,15.757C36.211,29.272,34.638,29,33,29 c-7.692,0-14.023,5.793-14.89,13.252C12.906,43.353,9,47.969,9,53.5C9,59.851,14.149,65,20.5,65c0.177,0,0.352-0.012,0.526-0.022 C21.022,65.153,21,65.324,21,65.5C21,76.822,30.178,86,41.5,86c6.437,0,12.175-2.972,15.934-7.614C59.612,80.611,62.64,82,66,82 c4.65,0,8.674-2.65,10.666-6.518C77.718,75.817,78.837,76,80,76c6.075,0,11-4.925,11-11C91,61.689,89.53,58.727,87.215,56.71z"/><path fill="#fff" d="M15.405,54H5.5C5.224,54,5,53.776,5,53.5S5.224,53,5.5,53h9.905c0.276,0,0.5,0.224,0.5,0.5 S15.682,54,15.405,54z M18.5,54h-1c-0.276,0-0.5-0.224-0.5-0.5s0.224-0.5,0.5-0.5h1c0.276,0,0.5,0.224,0.5,0.5S18.777,54,18.5,54z M23.491,56H14.5c-0.276,0-0.5-0.224-0.5-0.5s0.224-0.5,0.5-0.5h8.991c0.276,0,0.5,0.224,0.5,0.5S23.767,56,23.491,56z M12.5,56h-1 c-0.276,0-0.5-0.224-0.5-0.5s0.224-0.5,0.5-0.5h1c0.276,0,0.5,0.224,0.5,0.5S12.777,56,12.5,56z M9.5,56h-2 C7.224,56,7,55.776,7,55.5S7.224,55,7.5,55h2c0.276,0,0.5,0.224,0.5,0.5S9.777,56,9.5,56z M15.5,58h-2c-0.276,0-0.5-0.224-0.5-0.5 s0.224-0.5,0.5-0.5h2c0.276,0,0.5,0.224,0.5,0.5S15.776,58,15.5,58z M18.5,49c-0.177,0-0.823,0-1,0c-0.276,0-0.5,0.224-0.5,0.5 s0.224,0.5,0.5,0.5c0.177,0,0.823,0,1,0c0.276,0,0.5-0.224,0.5-0.5S18.776,49,18.5,49z M18.5,51c-0.177,0-4.823,0-5,0 c-0.276,0-0.5,0.224-0.5,0.5s0.224,0.5,0.5,0.5c0.177,0,4.823,0,5,0c0.276,0,0.5-0.224,0.5-0.5S18.776,51,18.5,51z M23.5,53 c-0.177,0-2.823,0-3,0c-0.276,0-0.5,0.224-0.5,0.5s0.224,0.5,0.5,0.5c0.177,0,2.823,0,3,0c0.276,0,0.5-0.224,0.5-0.5 S23.776,53,23.5,53z"/><path fill="#fff" d="M72.5,24h-10c-0.276,0-0.5-0.224-0.5-0.5s0.224-0.5,0.5-0.5h10c0.276,0,0.5,0.224,0.5,0.5 S72.776,24,72.5,24z M76.5,24h-2c-0.276,0-0.5-0.224-0.5-0.5s0.224-0.5,0.5-0.5h2c0.276,0,0.5,0.224,0.5,0.5S76.776,24,76.5,24z M81.5,26h-10c-0.276,0-0.5-0.224-0.5-0.5s0.224-0.5,0.5-0.5h10c0.276,0,0.5,0.224,0.5,0.5S81.777,26,81.5,26z M69.5,26h-1 c-0.276,0-0.5-0.224-0.5-0.5s0.224-0.5,0.5-0.5h1c0.276,0,0.5,0.224,0.5,0.5S69.776,26,69.5,26z M66.375,26H64.5 c-0.276,0-0.5-0.224-0.5-0.5s0.224-0.5,0.5-0.5h1.875c0.276,0,0.5,0.224,0.5,0.5S66.651,26,66.375,26z M75.5,22h-5 c-0.276,0-0.5-0.224-0.5-0.5s0.224-0.5,0.5-0.5h5c0.276,0,0.5,0.224,0.5,0.5S75.777,22,75.5,22z M72.5,28h-2 c-0.276,0-0.5-0.224-0.5-0.5s0.224-0.5,0.5-0.5h2c0.276,0,0.5,0.224,0.5,0.5S72.776,28,72.5,28z"/><path fill="#fdfcef" d="M79.875,60.5c0,0,3.64,0,6.125,0s4.5-2.015,4.5-4.5c0-2.333-1.782-4.229-4.055-4.455 C86.467,51.364,86.5,51.187,86.5,51c0-2.485-2.015-4.5-4.5-4.5c-1.438,0-2.703,0.686-3.527,1.736 C78.333,45.6,76.171,43.5,73.5,43.5c-2.761,0-5,2.239-5,5c0,0.446,0.077,0.87,0.187,1.282C68.045,49.005,67.086,48.5,66,48.5 c-1.781,0-3.234,1.335-3.455,3.055C62.364,51.533,62.187,51.5,62,51.5c-2.485,0-4.5,2.015-4.5,4.5s2.015,4.5,4.5,4.5s9.5,0,9.5,0 h5.375V61h3V60.5z"/><path fill="#472b29" d="M73.5,43c-3.033,0-5.5,2.467-5.5,5.5c0,0.016,0,0.031,0,0.047C67.398,48.192,66.71,48,66,48 c-1.831,0-3.411,1.261-3.858,3.005C62.095,51.002,62.048,51,62,51c-2.757,0-5,2.243-5,5s2.243,5,5,5h14.875 c0.276,0,0.5-0.224,0.5-0.5s-0.224-0.5-0.5-0.5H62c-2.206,0-4-1.794-4-4s1.794-4,4-4c0.117,0,0.23,0.017,0.343,0.032l0.141,0.019 c0.021,0.003,0.041,0.004,0.062,0.004c0.246,0,0.462-0.185,0.495-0.437C63.232,50.125,64.504,49,66,49 c0.885,0,1.723,0.401,2.301,1.1c0.098,0.118,0.241,0.182,0.386,0.182c0.078,0,0.156-0.018,0.228-0.056 c0.209-0.107,0.314-0.346,0.254-0.573C69.054,49.218,69,48.852,69,48.5c0-2.481,2.019-4.5,4.5-4.5c2.381,0,4.347,1.872,4.474,4.263 c0.011,0.208,0.15,0.387,0.349,0.45c0.05,0.016,0.101,0.024,0.152,0.024c0.15,0,0.296-0.069,0.392-0.192 C79.638,47.563,80.779,47,82,47c2.206,0,4,1.794,4,4c0,0.117-0.017,0.23-0.032,0.343l-0.019,0.141 c-0.016,0.134,0.022,0.268,0.106,0.373s0.207,0.172,0.34,0.185C88.451,52.247,90,53.949,90,56c0,2.206-1.794,4-4,4h-6.125 c-0.276,0-0.5,0.224-0.5,0.5s0.224,0.5,0.5,0.5H86c2.757,0,5-2.243,5-5c0-2.397-1.689-4.413-4.003-4.877 C86.999,51.082,87,51.041,87,51c0-2.757-2.243-5-5-5c-1.176,0-2.293,0.416-3.183,1.164C78.219,44.76,76.055,43,73.5,43L73.5,43z"/><path fill="#472b29" d="M72,50c-1.403,0-2.609,0.999-2.913,2.341C68.72,52.119,68.301,52,67.875,52 c-1.202,0-2.198,0.897-2.353,2.068C65.319,54.022,65.126,54,64.938,54c-1.529,0-2.811,1.2-2.918,2.732 C62.01,56.87,62.114,56.99,62.251,57c0.006,0,0.012,0,0.018,0c0.13,0,0.24-0.101,0.249-0.232c0.089-1.271,1.151-2.268,2.419-2.268 c0.229,0,0.47,0.042,0.738,0.127c0.022,0.007,0.045,0.01,0.067,0.01c0.055,0,0.11-0.02,0.156-0.054 C65.962,54.537,66,54.455,66,54.375c0-1.034,0.841-1.875,1.875-1.875c0.447,0,0.885,0.168,1.231,0.473 c0.047,0.041,0.106,0.063,0.165,0.063c0.032,0,0.063-0.006,0.093-0.019c0.088-0.035,0.148-0.117,0.155-0.212 C69.623,51.512,70.712,50.5,72,50.5c0.208,0,0.425,0.034,0.682,0.107c0.023,0.007,0.047,0.01,0.07,0.01 c0.109,0,0.207-0.073,0.239-0.182c0.038-0.133-0.039-0.271-0.172-0.309C72.517,50.04,72.256,50,72,50L72,50z"/><path fill="#472b29" d="M85.883,51.5c-1.326,0-2.508,0.897-2.874,2.182c-0.038,0.133,0.039,0.271,0.172,0.309 C83.205,53.997,83.228,54,83.25,54c0.109,0,0.209-0.072,0.24-0.182C83.795,52.748,84.779,52,85.883,52 c0.117,0,0.23,0.014,0.342,0.029c0.012,0.002,0.023,0.003,0.035,0.003c0.121,0,0.229-0.092,0.246-0.217 c0.019-0.137-0.077-0.263-0.214-0.281C86.158,51.516,86.022,51.5,85.883,51.5L85.883,51.5z"/><g><path fill="#485dda" d="M72,36v28c0,3.87-3.13,7-7,7H37c-3.87,0-7-3.13-7-7V36c0-3.87,3.13-7,7-7h28 C68.87,29,72,32.13,72,36z"/><path fill="#444be1" d="M58,71H37c-3.87,0-7-3.13-7-7V43L58,71z"/><path fill="#5540e5" d="M72,46v18c0,3.87-3.13,7-7,7H41.08C42.1,57.02,53.76,46,68,46H72z"/><path fill="#6734eb" d="M72,50.36V64c0,3.87-3.13,7-7,7H45.09C46.1,59.23,55.98,50,68,50C69.36,50,70.7,50.12,72,50.36z"/><path fill="#7337ef" d="M72,54.43V64c0,3.87-3.13,7-7,7H49.11c1-9.55,9.08-17,18.89-17C69.37,54,70.71,54.15,72,54.43z"/><path fill="#803af4" d="M72,58.54V64c0,3.87-3.13,7-7,7H53.14C54.11,63.66,60.4,58,68,58C69.38,58,70.73,58.19,72,58.54z"/><path fill="#833bf3" d="M72,62.75V64c0,3.87-3.13,7-7,7h-7.82c0.94-5.12,5.42-9,10.82-9C69.41,62,70.76,62.27,72,62.75z"/><path fill="#2181d8" d="M37,29c-3.87,0-7,3.13-7,7v19h1c15.01,0,27.35-11.39,28.85-26H37z"/><path fill="#06a6c8" d="M37,29c-3.87,0-7,3.13-7,7v15h1c12.79,0,23.34-9.61,24.81-22H37z"/><path fill="#02b9cb" d="M37,29c-3.87,0-7,3.13-7,7v10.97c0.33,0.02,0.66,0.03,1,0.03c10.58,0,19.33-7.82,20.78-18H37z"/><path fill="#01d8c9" d="M37,29c-3.87,0-7,3.13-7,7v6.97c0.33,0.02,0.67,0.03,1,0.03c8.37,0,15.32-6.04,16.73-14H37z"/><path fill="#00f1c7" d="M43.65,29C42.3,34.73,37.15,39,31,39c-0.34,0-0.67-0.01-1-0.04V36c0-3.87,3.13-7,7-7H43.65z"/></g><g><path fill="#fff" d="M44.482,49.184c-0.022,0.101-0.044,0.203-0.066,0.304c0,0-0.029-0.01-0.029-0.01l0.03,0 c-0.031,0.18-0.093,0.357-0.06,0.545c-0.324,2.601-0.01,5.079,1.464,7.317c1.646,2.499,4.282,3.428,7.127,2.468 c2.575-0.868,4.704-2.342,6.097-4.744c0.117-0.201,0.245-0.395,0.373-0.589c0.248-0.375,0.825-0.682,1.144-0.581 c0.524,0.166,0.934,0.467,1.035,1.049c0.06,0.344,0.03,0.692-0.149,0.997c-1.751,2.997-4.081,5.364-7.331,6.737 c-1.669,0.705-3.403,1.101-5.206,0.893c-3.099-0.358-5.575-1.836-7.396-4.379c-0.536-0.748-0.955-1.563-1.282-2.424 c-0.071-0.187-0.164-0.365-0.248-0.547c0.005-0.011,0.016-0.025,0.013-0.035c-0.006-0.024-0.018-0.046-0.027-0.068 c-0.013-0.066-0.026-0.131-0.038-0.197c-0.595-1.995-0.663-4.024-0.441-6.082c0.26-2.408,1.001-4.666,2.148-6.777 c1.572-2.894,3.674-5.328,6.691-6.787c2.199-1.063,4.511-1.235,6.798-0.237c1.474,0.643,2.649,1.63,3.125,3.261 c0.523,1.791-0.26,3.98-1.803,5.011c-0.549,0.367-1.152,0.376-1.564,0.024c-0.389-0.333-0.482-0.971-0.215-1.553 c0.409-0.89,0.667-1.799,0.361-2.779c-0.468-1.5-1.609-2.424-3.229-1.976c-0.881,0.243-1.615,0.733-2.291,1.318 c-1.28,1.108-2.234,2.472-3.032,3.949c-0.896,1.659-1.541,3.412-1.913,5.263c-0.027,0.133-0.029,0.27-0.043,0.406 C44.451,49.023,44.447,49.1,44.482,49.184z"/><path fill="#472b29" d="M49.878,64c-0.34,0-0.677-0.02-1.011-0.059c-3.191-0.367-5.768-1.893-7.657-4.531 c-0.529-0.74-0.977-1.585-1.328-2.511c-0.047-0.122-0.104-0.242-0.162-0.361l-0.076-0.161c-0.023-0.052-0.035-0.107-0.034-0.163 c-0.003-0.01-0.006-0.019-0.007-0.026l-0.038-0.196c-0.548-1.831-0.696-3.868-0.446-6.193c0.258-2.385,0.995-4.712,2.192-6.916 c1.8-3.313,4.043-5.585,6.856-6.946c2.414-1.165,4.808-1.246,7.111-0.242c1.784,0.778,2.875,1.923,3.335,3.499 c0.573,1.968-0.268,4.302-1.956,5.428c-0.686,0.46-1.477,0.457-2.016-0.002c-0.519-0.443-0.646-1.264-0.312-1.994 c0.332-0.723,0.633-1.587,0.344-2.512c-0.215-0.689-0.906-2.238-2.771-1.727c-0.715,0.197-1.396,0.592-2.146,1.24 c-1.117,0.968-2.054,2.189-2.946,3.844c-0.887,1.642-1.518,3.377-1.876,5.159c-0.016,0.076-0.02,0.153-0.025,0.23l-0.012,0.138 c-0.005,0.051-0.02,0.099-0.043,0.142c0.005,0.042,0.003,0.086-0.006,0.128l-0.066,0.303c-0.002,0.007-0.003,0.014-0.006,0.021 l-0.02,0.101c-0.023,0.106-0.043,0.198-0.031,0.267c0.007,0.037,0.008,0.074,0.003,0.111c-0.347,2.792,0.112,5.103,1.405,7.064 c1.567,2.38,4.008,3.228,6.693,2.319c2.709-0.914,4.637-2.411,5.894-4.578c0.113-0.195,0.238-0.385,0.362-0.574 c0.34-0.514,1.084-0.926,1.593-0.765c0.743,0.234,1.177,0.686,1.29,1.343c0.083,0.468,0.018,0.889-0.194,1.25 c-1.941,3.324-4.398,5.579-7.509,6.894C52.711,63.677,51.267,64,49.878,64z M40.367,56.151l0.029,0.062 c0.066,0.139,0.132,0.276,0.187,0.419c0.329,0.866,0.745,1.653,1.236,2.34c1.762,2.46,4.162,3.881,7.134,4.225 c1.565,0.175,3.208-0.103,5.019-0.866c2.955-1.248,5.295-3.401,7.152-6.581c0.119-0.203,0.154-0.453,0.104-0.743 c-0.064-0.374-0.305-0.606-0.777-0.756c-0.125-0.023-0.534,0.148-0.719,0.43c-0.139,0.21-0.256,0.388-0.362,0.571 c-1.352,2.33-3.413,3.937-6.302,4.912c-2.99,1.009-5.817,0.029-7.561-2.618c-1.387-2.105-1.887-4.565-1.528-7.52 c-0.021-0.188,0.016-0.356,0.045-0.494l0.005-0.022c-0.003-0.028-0.002-0.058,0.003-0.087c0.008-0.046,0.022-0.089,0.043-0.128 l0.021-0.099c-0.025-0.136-0.003-0.268,0.064-0.38l0.001-0.012c0.008-0.109,0.017-0.219,0.039-0.325 c0.372-1.854,1.029-3.659,1.95-5.365c0.937-1.737,1.927-3.025,3.116-4.055c0.837-0.725,1.611-1.169,2.438-1.396 c1.702-0.467,3.111,0.385,3.687,2.227c0.366,1.173-0.011,2.245-0.379,3.047c-0.193,0.421-0.144,0.889,0.117,1.111 c0.281,0.239,0.707,0.219,1.111-0.051c1.405-0.938,2.131-2.955,1.652-4.595c-0.394-1.35-1.347-2.338-2.914-3.021 c-2.097-0.916-4.276-0.837-6.485,0.23c-2.667,1.29-4.802,3.458-6.524,6.628c-1.149,2.118-1.858,4.352-2.104,6.639 c-0.239,2.225-0.1,4.165,0.428,5.935l0.047,0.234C40.352,56.08,40.362,56.115,40.367,56.151z"/></g><g><path fill="#472b29" d="M65,29.4c3.639,0,6.6,2.961,6.6,6.6v28c0,3.639-2.961,6.6-6.6,6.6H37c-3.639,0-6.6-2.961-6.6-6.6V36 c0-3.639,2.961-6.6,6.6-6.6H65 M65,28H37c-4.418,0-8,3.582-8,8v28c0,4.418,3.582,8,8,8h28c4.418,0,8-3.582,8-8V36 C73,31.582,69.418,28,65,28L65,28z"/><path fill="#472b29" d="M63.375,68.75h-24.75c-3.516,0-6.375-2.86-6.375-6.375v-24.75c0-3.515,2.859-6.375,6.375-6.375h24 c0.207,0,0.375,0.168,0.375,0.375S62.832,32,62.625,32h-24C35.523,32,33,34.523,33,37.625v24.75C33,65.477,35.523,68,38.625,68 h24.75C66.477,68,69,65.477,69,62.375v-14C69,48.168,69.168,48,69.375,48s0.375,0.168,0.375,0.375v14 C69.75,65.89,66.891,68.75,63.375,68.75z"/><path fill="#472b29" d="M69.375,43C69.168,43,69,42.832,69,42.625v-1.25C69,41.168,69.168,41,69.375,41 s0.375,0.168,0.375,0.375v1.25C69.75,42.832,69.582,43,69.375,43z"/><path fill="#472b29" d="M69.375,47C69.168,47,69,46.832,69,46.625v-2.25C69,44.168,69.168,44,69.375,44 s0.375,0.168,0.375,0.375v2.25C69.75,46.832,69.582,47,69.375,47z"/></g><g><path fill="#fdfcef" d="M36.5,73.5c0,0,1.567,0,3.5,0s3.5-1.567,3.5-3.5c0-1.781-1.335-3.234-3.055-3.455 C40.473,66.366,40.5,66.187,40.5,66c0-1.933-1.567-3.5-3.5-3.5c-1.032,0-1.95,0.455-2.59,1.165 c-0.384-1.808-1.987-3.165-3.91-3.165c-2.209,0-4,1.791-4,4c0,0.191,0.03,0.374,0.056,0.558C26.128,64.714,25.592,64.5,25,64.5 c-1.228,0-2.245,0.887-2.455,2.055C22.366,66.527,22.187,66.5,22,66.5c-1.933,0-3.5,1.567-3.5,3.5s1.567,3.5,3.5,3.5s7.5,0,7.5,0 V74h7V73.5z"/><path fill="#472b29" d="M38.25,69C38.112,69,38,68.888,38,68.75c0-1.223,0.995-2.218,2.218-2.218 c0.034,0.009,0.737-0.001,1.244,0.136c0.133,0.036,0.212,0.173,0.176,0.306c-0.036,0.134-0.173,0.213-0.306,0.176 c-0.444-0.12-1.1-0.12-1.113-0.118c-0.948,0-1.719,0.771-1.719,1.718C38.5,68.888,38.388,69,38.25,69z"/><circle cx="31.5" cy="73.5" r=".5" fill="#472b29"/><path fill="#472b29" d="M40,74h-3.5c-0.276,0-0.5-0.224-0.5-0.5s0.224-0.5,0.5-0.5H40c1.654,0,3-1.346,3-3 c0-1.496-1.125-2.768-2.618-2.959c-0.134-0.018-0.255-0.088-0.336-0.196s-0.115-0.244-0.094-0.377C39.975,66.314,40,66.16,40,66 c0-1.654-1.346-3-3-3c-0.85,0-1.638,0.355-2.219,1c-0.125,0.139-0.321,0.198-0.5,0.148c-0.182-0.049-0.321-0.195-0.36-0.379 C33.58,62.165,32.141,61,30.5,61c-1.93,0-3.5,1.57-3.5,3.5c0,0.143,0.021,0.28,0.041,0.418c0.029,0.203-0.063,0.438-0.242,0.54 s-0.396,0.118-0.556-0.01C25.878,65.155,25.449,65,25,65c-0.966,0-1.792,0.691-1.963,1.644c-0.048,0.267-0.296,0.446-0.569,0.405 C22.314,67.025,22.16,67,22,67c-1.654,0-3,1.346-3,3s1.346,3,3,3h7.5c0.276,0,0.5,0.224,0.5,0.5S29.776,74,29.5,74H22 c-2.206,0-4-1.794-4-4s1.794-4,4-4c0.059,0,0.116,0.002,0.174,0.006C22.588,64.82,23.711,64,25,64c0.349,0,0.689,0.061,1.011,0.18 C26.176,61.847,28.126,60,30.5,60c1.831,0,3.466,1.127,4.153,2.774C35.333,62.276,36.155,62,37,62c2.206,0,4,1.794,4,4 c0,0.048-0.001,0.095-0.004,0.142C42.739,66.59,44,68.169,44,70C44,72.206,42.206,74,40,74z"/><path fill="#472b29" d="M34.5,73c-0.159,0-0.841,0-1,0c-0.276,0-0.5,0.224-0.5,0.5s0.224,0.5,0.5,0.5c0.159,0,0.841,0,1,0 c0.276,0,0.5-0.224,0.5-0.5S34.776,73,34.5,73z"/></g></svg>