<svg xmlns="http://www.w3.org/2000/svg"  viewBox="0 0 100 100" width="90px" height="90px"><path fill="#c7ede6" d="M87.215,56.71C88.35,54.555,89,52.105,89,49.5c0-6.621-4.159-12.257-10.001-14.478 C78.999,35.015,79,35.008,79,35c0-11.598-9.402-21-21-21c-9.784,0-17.981,6.701-20.313,15.757C36.211,29.272,34.638,29,33,29 c-7.692,0-14.023,5.793-14.89,13.252C12.906,43.353,9,47.969,9,53.5C9,59.851,14.149,65,20.5,65c0.177,0,0.352-0.012,0.526-0.022 C21.022,65.153,21,65.324,21,65.5C21,76.822,30.178,86,41.5,86c6.437,0,12.175-2.972,15.934-7.614C59.612,80.611,62.64,82,66,82 c4.65,0,8.674-2.65,10.666-6.518C77.718,75.817,78.837,76,80,76c6.075,0,11-4.925,11-11C91,61.689,89.53,58.727,87.215,56.71z"/><path fill="#fdfcef" d="M32.875,80.5c0,0,3.64,0,6.125,0s4.5-2.015,4.5-4.5c0-2.333-1.782-4.229-4.055-4.455 C39.467,71.364,39.5,71.187,39.5,71c0-2.485-2.015-4.5-4.5-4.5c-1.438,0-2.703,0.686-3.527,1.736 C31.333,65.6,29.171,63.5,26.5,63.5c-2.761,0-5,2.239-5,5c0,0.446,0.077,0.87,0.187,1.282C21.045,69.005,20.086,68.5,19,68.5 c-1.781,0-3.234,1.335-3.455,3.055C15.364,71.533,15.187,71.5,15,71.5c-2.485,0-4.5,2.015-4.5,4.5s2.015,4.5,4.5,4.5s9.5,0,9.5,0 h5.375V81h3V80.5z"/><path fill="#472b29" d="M26.5,63c-3.033,0-5.5,2.467-5.5,5.5c0,0.016,0,0.031,0,0.047C20.398,68.192,19.71,68,19,68 c-1.831,0-3.411,1.261-3.858,3.005C15.095,71.002,15.048,71,15,71c-2.757,0-5,2.243-5,5s2.243,5,5,5h14.875 c0.276,0,0.5-0.224,0.5-0.5s-0.224-0.5-0.5-0.5H15c-2.206,0-4-1.794-4-4s1.794-4,4-4c0.117,0,0.23,0.017,0.343,0.032l0.141,0.019 c0.021,0.003,0.041,0.004,0.062,0.004c0.246,0,0.462-0.185,0.495-0.437C16.232,70.125,17.504,69,19,69 c0.885,0,1.723,0.401,2.301,1.1c0.098,0.118,0.241,0.182,0.386,0.182c0.078,0,0.156-0.018,0.228-0.056 c0.209-0.107,0.314-0.346,0.254-0.573C22.054,69.218,22,68.852,22,68.5c0-2.481,2.019-4.5,4.5-4.5 c2.381,0,4.347,1.872,4.474,4.263c0.011,0.208,0.15,0.387,0.349,0.45c0.05,0.016,0.101,0.024,0.152,0.024 c0.15,0,0.296-0.069,0.392-0.192C32.638,67.563,33.779,67,35,67c2.206,0,4,1.794,4,4c0,0.117-0.017,0.23-0.032,0.343l-0.019,0.141 c-0.016,0.134,0.022,0.268,0.106,0.373c0.084,0.105,0.207,0.172,0.34,0.185C41.451,72.247,43,73.949,43,76c0,2.206-1.794,4-4,4 h-6.125c-0.276,0-0.5,0.224-0.5,0.5s0.224,0.5,0.5,0.5H39c2.757,0,5-2.243,5-5c0-2.397-1.689-4.413-4.003-4.877 C39.999,71.082,40,71.041,40,71c0-2.757-2.243-5-5-5c-1.176,0-2.293,0.416-3.183,1.164C31.219,64.76,29.055,63,26.5,63L26.5,63z"/><path fill="#472b29" d="M25,70c-1.403,0-2.609,0.999-2.913,2.341C21.72,72.119,21.301,72,20.875,72 c-1.202,0-2.198,0.897-2.353,2.068C18.319,74.022,18.126,74,17.937,74c-1.529,0-2.811,1.2-2.918,2.732 C15.01,76.87,15.114,76.99,15.251,77c0.006,0,0.012,0,0.018,0c0.13,0,0.24-0.101,0.249-0.232c0.089-1.271,1.151-2.268,2.419-2.268 c0.229,0,0.47,0.041,0.738,0.127c0.022,0.007,0.045,0.01,0.067,0.01c0.055,0,0.11-0.02,0.156-0.054 C18.962,74.537,19,74.455,19,74.375c0-1.034,0.841-1.875,1.875-1.875c0.447,0,0.885,0.168,1.231,0.473 c0.047,0.041,0.106,0.063,0.165,0.063c0.032,0,0.063-0.006,0.093-0.019c0.088-0.035,0.148-0.117,0.155-0.212 C22.623,71.512,23.712,70.5,25,70.5c0.208,0,0.425,0.034,0.682,0.107c0.023,0.007,0.047,0.01,0.07,0.01 c0.109,0,0.207-0.073,0.239-0.182c0.038-0.133-0.039-0.271-0.172-0.309C25.517,70.04,25.256,70,25,70L25,70z"/><path fill="#472b29" d="M38.883,71.5c-1.326,0-2.508,0.897-2.874,2.182c-0.038,0.133,0.039,0.271,0.172,0.309 C36.205,73.997,36.228,74,36.25,74c0.109,0,0.209-0.072,0.24-0.182C36.795,72.748,37.779,72,38.883,72 c0.117,0,0.23,0.014,0.342,0.029c0.012,0.002,0.023,0.003,0.035,0.003c0.121,0,0.229-0.092,0.246-0.217 c0.019-0.137-0.077-0.263-0.214-0.281C39.158,71.516,39.022,71.5,38.883,71.5L38.883,71.5z"/><path fill="#fff" d="M16.405,47H6.5C6.224,47,6,46.776,6,46.5S6.224,46,6.5,46h9.905c0.276,0,0.5,0.224,0.5,0.5 S16.682,47,16.405,47z"/><path fill="#fff" d="M19.5,47h-1c-0.276,0-0.5-0.224-0.5-0.5s0.224-0.5,0.5-0.5h1c0.276,0,0.5,0.224,0.5,0.5 S19.777,47,19.5,47z"/><path fill="#fff" d="M24.491,49H15.5c-0.276,0-0.5-0.224-0.5-0.5s0.224-0.5,0.5-0.5h8.991c0.276,0,0.5,0.224,0.5,0.5 S24.767,49,24.491,49z"/><path fill="#fff" d="M13.5,49h-1c-0.276,0-0.5-0.224-0.5-0.5s0.224-0.5,0.5-0.5h1c0.276,0,0.5,0.224,0.5,0.5 S13.777,49,13.5,49z"/><path fill="#fff" d="M10.5,49h-2C8.224,49,8,48.776,8,48.5S8.224,48,8.5,48h2c0.276,0,0.5,0.224,0.5,0.5 S10.777,49,10.5,49z"/><path fill="#fff" d="M16.5,51h-2c-0.276,0-0.5-0.224-0.5-0.5s0.224-0.5,0.5-0.5h2c0.276,0,0.5,0.224,0.5,0.5 S16.776,51,16.5,51z"/><path fill="#fff" d="M19.5,42c-0.177,0-0.823,0-1,0c-0.276,0-0.5,0.224-0.5,0.5c0,0.276,0.224,0.5,0.5,0.5 c0.177,0,0.823,0,1,0c0.276,0,0.5-0.224,0.5-0.5C20,42.224,19.776,42,19.5,42z"/><path fill="#fff" d="M19.5,44c-0.177,0-4.823,0-5,0c-0.276,0-0.5,0.224-0.5,0.5c0,0.276,0.224,0.5,0.5,0.5 c0.177,0,4.823,0,5,0c0.276,0,0.5-0.224,0.5-0.5C20,44.224,19.776,44,19.5,44z"/><path fill="#fff" d="M24.5,46c-0.177,0-2.823,0-3,0c-0.276,0-0.5,0.224-0.5,0.5c0,0.276,0.224,0.5,0.5,0.5 c0.177,0,2.823,0,3,0c0.276,0,0.5-0.224,0.5-0.5C25,46.224,24.776,46,24.5,46z"/><g><path fill="#fff" d="M86.5,67h-10c-0.276,0-0.5-0.224-0.5-0.5s0.224-0.5,0.5-0.5h10c0.276,0,0.5,0.224,0.5,0.5 S86.776,67,86.5,67z"/><path fill="#fff" d="M90.5,67h-2c-0.276,0-0.5-0.224-0.5-0.5s0.224-0.5,0.5-0.5h2c0.276,0,0.5,0.224,0.5,0.5 S90.776,67,90.5,67z"/><path fill="#fff" d="M95.5,69h-10c-0.276,0-0.5-0.224-0.5-0.5s0.224-0.5,0.5-0.5h10c0.276,0,0.5,0.224,0.5,0.5 S95.777,69,95.5,69z"/><path fill="#fff" d="M83.5,69h-1c-0.276,0-0.5-0.224-0.5-0.5s0.224-0.5,0.5-0.5h1c0.276,0,0.5,0.224,0.5,0.5 S83.776,69,83.5,69z"/><path fill="#fff" d="M80.375,69H78.5c-0.276,0-0.5-0.224-0.5-0.5s0.224-0.5,0.5-0.5h1.875c0.276,0,0.5,0.224,0.5,0.5 S80.651,69,80.375,69z"/><path fill="#fff" d="M89.5,65h-5c-0.276,0-0.5-0.224-0.5-0.5s0.224-0.5,0.5-0.5h5c0.276,0,0.5,0.224,0.5,0.5 S89.777,65,89.5,65z"/><path fill="#fff" d="M86.5,71h-2c-0.276,0-0.5-0.224-0.5-0.5s0.224-0.5,0.5-0.5h2c0.276,0,0.5,0.224,0.5,0.5 S86.776,71,86.5,71z"/></g><g><path fill="#fdfcef" d="M89.5,44.5c0,0,1.567,0,3.5,0s3.5-1.567,3.5-3.5c0-1.781-1.335-3.234-3.055-3.455 C93.473,37.366,93.5,37.187,93.5,37c0-1.933-1.567-3.5-3.5-3.5c-1.032,0-1.95,0.455-2.59,1.165 c-0.384-1.808-1.987-3.165-3.91-3.165c-2.209,0-4,1.791-4,4c0,0.191,0.03,0.374,0.056,0.558C79.128,35.714,78.592,35.5,78,35.5 c-1.228,0-2.245,0.887-2.455,2.055C75.366,37.527,75.187,37.5,75,37.5c-1.933,0-3.5,1.567-3.5,3.5s1.567,3.5,3.5,3.5s7.5,0,7.5,0 V45h7V44.5z"/><path fill="#472b29" d="M91.25,40C91.112,40,91,39.888,91,39.75c0-1.223,0.995-2.218,2.218-2.218 c0.034,0.009,0.737-0.001,1.244,0.136c0.133,0.036,0.212,0.173,0.176,0.306c-0.036,0.134-0.173,0.213-0.306,0.176 c-0.444-0.12-1.1-0.12-1.113-0.118c-0.948,0-1.719,0.771-1.719,1.718C91.5,39.888,91.388,40,91.25,40z"/><circle cx="84.5" cy="44.5" r=".5" fill="#472b29"/><path fill="#472b29" d="M93,45h-3.5c-0.276,0-0.5-0.224-0.5-0.5s0.224-0.5,0.5-0.5H93c1.654,0,3-1.346,3-3 c0-1.496-1.125-2.768-2.618-2.959c-0.134-0.018-0.255-0.088-0.336-0.196s-0.115-0.244-0.094-0.377C92.975,37.314,93,37.16,93,37 c0-1.654-1.346-3-3-3c-0.85,0-1.638,0.355-2.219,1c-0.125,0.139-0.321,0.198-0.5,0.148c-0.182-0.049-0.321-0.195-0.36-0.379 C86.58,33.165,85.141,32,83.5,32c-1.93,0-3.5,1.57-3.5,3.5c0,0.143,0.021,0.28,0.041,0.418c0.029,0.203-0.063,0.438-0.242,0.54 c-0.179,0.102-0.396,0.118-0.556-0.01C78.878,36.155,78.449,36,78,36c-0.966,0-1.792,0.691-1.963,1.644 c-0.048,0.267-0.296,0.446-0.569,0.405C75.314,38.025,75.16,38,75,38c-1.654,0-3,1.346-3,3s1.346,3,3,3h7.5 c0.276,0,0.5,0.224,0.5,0.5S82.776,45,82.5,45H75c-2.206,0-4-1.794-4-4s1.794-4,4-4c0.059,0,0.116,0.002,0.174,0.006 C75.588,35.82,76.711,35,78,35c0.349,0,0.689,0.061,1.011,0.18C79.176,32.847,81.126,31,83.5,31c1.831,0,3.466,1.127,4.153,2.774 C88.333,33.276,89.155,33,90,33c2.206,0,4,1.794,4,4c0,0.048-0.001,0.095-0.004,0.142C95.739,37.59,97,39.169,97,41 C97,43.206,95.206,45,93,45z"/><path fill="#472b29" d="M87.5,44c-0.159,0-0.841,0-1,0c-0.276,0-0.5,0.224-0.5,0.5c0,0.276,0.224,0.5,0.5,0.5 c0.159,0,0.841,0,1,0c0.276,0,0.5-0.224,0.5-0.5C88,44.224,87.776,44,87.5,44z"/></g><g><path fill="#78a0cf" d="M51.7,73.3v-8h-10v-5h-11V50c0-3.474,2.826-6.3,6.3-6.3c2.528,0,4.803,1.503,5.796,3.83 l0.399,0.936l0.731-0.708C45.298,46.431,47.1,45.7,49,45.7c2.441,0,4.711,1.214,6.071,3.249l0.38,0.568l0.577-0.366 C57.523,48.202,59.242,47.7,61,47.7c5.128,0,9.3,4.172,9.3,9.3v16.3H51.7z"/><path fill="#472b29" d="M37,44.4c2.247,0,4.27,1.336,5.153,3.405l0.799,1.872l1.462-1.416 c1.24-1.2,2.869-1.861,4.586-1.861c2.207,0,4.259,1.098,5.49,2.938l0.76,1.136l1.154-0.732C57.786,48.864,59.376,48.4,61,48.4 c4.742,0,8.6,3.858,8.6,8.6v15.6H52.4V66v-1.4H51h-8.6V61v-1.4H41h-9.6V50C31.4,46.912,33.912,44.4,37,44.4 M37,43 c-3.866,0-7,3.134-7,7v10.745C30,60.886,30.114,61,30.255,61H41v4.797C41,65.909,41.091,66,41.203,66H51v8h20V57 c0-5.523-4.477-10-10-10c-1.969,0-3.799,0.577-5.347,1.56C54.218,46.414,51.775,45,49,45c-2.162,0-4.12,0.861-5.56,2.255 C42.373,44.754,39.891,43,37,43L37,43z"/><circle cx="62" cy="34" r="5.3" fill="#78a0cf"/><path fill="#472b29" d="M62,29.4c2.536,0,4.6,2.063,4.6,4.6s-2.064,4.6-4.6,4.6s-4.6-2.063-4.6-4.6S59.464,29.4,62,29.4 M62,28c-3.314,0-6,2.687-6,6s2.686,6,6,6s6-2.687,6-6S65.314,28,62,28L62,28z"/><circle cx="48" cy="35" r="4.3" fill="#78a0cf"/><path fill="#472b29" d="M48,31.4c1.985,0,3.6,1.615,3.6,3.6s-1.615,3.6-3.6,3.6s-3.6-1.615-3.6-3.6S46.015,31.4,48,31.4 M48,30c-2.761,0-5,2.239-5,5s2.239,5,5,5s5-2.239,5-5S50.761,30,48,30L48,30z"/><circle cx="36" cy="36" r="3.3" fill="#78a0cf"/><path fill="#472b29" d="M36,33.4c1.434,0,2.6,1.167,2.6,2.6s-1.166,2.6-2.6,2.6s-2.6-1.167-2.6-2.6S34.566,33.4,36,33.4 M36,32c-2.209,0-4,1.791-4,4s1.791,4,4,4s4-1.791,4-4S38.209,32,36,32L36,32z"/><path fill="#472b29" d="M54.5,62.083c-0.138,0-0.25-0.112-0.25-0.25v-4.869c0-0.138,0.112-0.25,0.25-0.25 s0.25,0.112,0.25,0.25v4.869C54.75,61.971,54.638,62.083,54.5,62.083z"/><path fill="#472b29" d="M54.69,55.652c-0.02,0-0.04-0.002-0.06-0.007c-0.134-0.033-0.216-0.169-0.183-0.303 c0.11-0.445,0.268-0.881,0.469-1.296c1.115-2.306,3.489-3.796,6.048-3.796h0.071c0.138,0,0.25,0.112,0.25,0.25 s-0.112,0.25-0.25,0.25h-0.071c-2.369,0-4.566,1.379-5.598,3.513c-0.186,0.384-0.332,0.788-0.434,1.199 C54.904,55.576,54.802,55.652,54.69,55.652z"/><path fill="#472b29" d="M54.5,70.75c-0.138,0-0.25-0.112-0.25-0.25v-6.583c0-0.138,0.112-0.25,0.25-0.25 s0.25,0.112,0.25,0.25V70.5C54.75,70.638,54.638,70.75,54.5,70.75z"/><g><path fill="#472b29" d="M45.063,51.068c-0.042,0-0.083-0.01-0.122-0.031c-0.121-0.067-0.164-0.219-0.097-0.34 c0.839-1.509,2.431-2.446,4.155-2.446c0.138,0,0.25,0.112,0.25,0.25s-0.112,0.25-0.25,0.25c-1.543,0-2.968,0.839-3.718,2.189 C45.236,51.021,45.151,51.068,45.063,51.068z"/></g><g><path fill="#472b29" d="M44.5,62.75c-0.138,0-0.25-0.112-0.25-0.25V53c0-0.138,0.112-0.25,0.25-0.25s0.25,0.112,0.25,0.25 v9.5C44.75,62.638,44.638,62.75,44.5,62.75z"/></g><g><path fill="#472b29" d="M33.5,57.75c-0.138,0-0.25-0.112-0.25-0.25v-5.75c0-0.138,0.112-0.25,0.25-0.25 s0.25,0.112,0.25,0.25v5.75C33.75,57.638,33.638,57.75,33.5,57.75z"/></g><g><path fill="#472b29" d="M33.5,50.25c-0.138,0-0.25-0.112-0.25-0.25c0-2.068,1.682-3.75,3.75-3.75 c0.138,0,0.25,0.112,0.25,0.25s-0.112,0.25-0.25,0.25c-1.792,0-3.25,1.458-3.25,3.25C33.75,50.138,33.638,50.25,33.5,50.25z"/></g></g></svg>